<svg xmlns="http://www.w3.org/2000/svg" width="902.34" height="504.959" viewBox="0 0 902.34 504.959">
  <g id="zakelijk" transform="translate(0)">
    <path id="achtergrond" d="M0,0H902.34V504.959H0Z" transform="translate(0)" fill="#eef3fe"/>
    <g id="hand2">
      <path id="Path_26" data-name="Path 26" d="M60.4,145.793,72.695,160.5a5.018,5.018,0,0,0,6.367,1.1l33.152-19.32a6.746,6.746,0,0,0,2.854-8.343l-6.806-16.027L80.379,113.3,60.4,145.793Z" transform="translate(72.207 135.447)" fill="#c14f29"/>
      <path id="Path_28" data-name="Path 28" d="M87.707,118.778l-7.9-17.344A1.555,1.555,0,0,0,77.169,101l-.878.878a13.064,13.064,0,0,0-3.952,8.782l-.439,8.782Z" transform="translate(85.955 120.089)" fill="#c14f29"/>
      <path id="Path_29" data-name="Path 29" d="M76.128,101.279l3.074,6.806c.22.439-.22.878-.659.878a1.459,1.459,0,0,1-1.1-.878l-2.2-5.269a1.348,1.348,0,0,1,.22-1.317C75.908,101.059,76.128,101.059,76.128,101.279Z" transform="translate(89.85 120.904)" fill="#ab1300"/>
      <path id="Path_30" data-name="Path 30" d="M211.939,145.231l-.22.439-1.756,4.171-5.05,11.2a8.1,8.1,0,0,1-8.782,4.611L83.284,146.109a7.952,7.952,0,0,1-6.586-7.465L75.82,126.35l-.22-4.61V121.3l136.339,23.931Z" transform="translate(90.378 145.011)" fill="#66d19e"/>
      <path id="Path_31" data-name="Path 31" d="M127.207,128.9l-.22.439-1.756,4.171-5.05,11.2a8.1,8.1,0,0,1-8.782,4.611l41.934,7.245a8.1,8.1,0,0,0,8.782-4.611l5.05-11.2,1.756-4.171.22-.439L127.207,128.9Z" transform="translate(133.176 154.097)" fill="#06c167"/>
      <path id="Path_32" data-name="Path 32" d="M220.536,146.876l-.659,4.391L73,125.579l.659-4.391a4.745,4.745,0,0,1,5.489-3.952l137.437,23.931A5.213,5.213,0,0,1,220.536,146.876Z" transform="translate(87.27 140.073)" fill="#156a41"/>
      <path id="Path_33" data-name="Path 33" d="M194.223,192.155c-5.269,1.756-11.636,3.732-16.905,5.269a13.786,13.786,0,0,1-4.171.659c-7.465.439-16.027.659-23.492,1.1a8.825,8.825,0,0,1-5.708-1.756c-6.586-4.171-16.247-12.075-21.955-15.588s-8.123-3.513-12.514-5.708c-4.391-2.415-5.928-3.293-9.221-6.806-6.367-6.806-12.734-15.368-18.881-22.394-2.854-3.293-4.391-4.391-8.562-5.489C55.908,136.39,38.125,131.56,21,126.071,31.758,115.094,41.857,103.458,53.273,92.7c13.173,4.391,42.592,15.588,52.033,18.881s7.465,1.317,11.416,2.2c7.465,1.976,8.782,2.635,14.49,5.928a12.179,12.179,0,0,1,1.756,1.317,23.037,23.037,0,0,0,6.147,3.074,163.877,163.877,0,0,0,19.32,6.147,20.815,20.815,0,0,1,9.441,4.391c2.2,1.537,4.61,3.952,7.026,5.05,2.2,1.1,5.05,1.976,7.026,3.074,2.854,1.537,3.513,3.952,2.415,6.586-.659,1.756-2.2,2.415-3.732,2.854a1.32,1.32,0,0,0-.878.22c-6.586,1.1-12.734.878-19.1-1.976-.878-.439-1.976-1.1-2.854-1.537a56.861,56.861,0,0,1-11.856-2.415c-1.317,2.2-3.074,3.293-3.952,5.708-2.854,7.245-1.1,13.612,3.732,19.979,1.1,1.317,3.074,3.293,4.391,4.83a27.533,27.533,0,0,1,3.513,5.269c.22.22.22.659.659,1.1,4.83,0,13.173.439,17.344.22s6.147-1.537,8.782-1.976c7.245-1.1,11.636,1.1,15.368,6.586h0a2.635,2.635,0,0,1-1.537,3.952Z" transform="translate(25.105 110.82)" fill="#fa9269"/>
      <path id="Path_34" data-name="Path 34" d="M92.109,114.031l5.928,3.074a3.031,3.031,0,0,1,.659.878,1.511,1.511,0,0,1-1.1,1.756c-.439.22-.878,0-1.1,0l-4.391-2.2a1.614,1.614,0,0,1-.878-1.756v-.878C91.231,114.251,91.67,113.812,92.109,114.031Zm17.564,52.033a7.888,7.888,0,0,0-5.489-.22l-1.317.439a2.109,2.109,0,0,0-1.537,1.976V169.8l8.562-2.635a.765.765,0,0,0-.22-1.1Z" transform="translate(108.996 136.253)" fill="#ab1300"/>
      <path id="Path_35" data-name="Path 35" d="M50.986,145.861,44.4,142.568,67.452,98l6.586,3.293Z" transform="translate(53.079 117.156)" fill="#ffcf70"/>
      <circle id="Ellipse_3" data-name="Ellipse 3" cx="7.245" cy="7.245" r="7.245" transform="translate(95.942 263.018)" fill="#ffcf70"/>
      <circle id="Ellipse_4" data-name="Ellipse 4" cx="3.732" cy="3.732" r="3.732" transform="translate(99.455 266.531)" fill="#ffe3ac"/>
      <path id="Path_37" data-name="Path 37" d="M92.21,124.8l-1.976-2.415a9.614,9.614,0,0,0-4.83-3.074l-.22.439-.878-.659a4.834,4.834,0,0,0-1.756-.22,6.078,6.078,0,0,0-1.976.22,8.943,8.943,0,0,1-4.83-.22l-7.465-5.05-15.368-10.1L38.64,94.287l-15.368-10.1L9,74.747,2.415,70.356,0,68.6v76.842l.878.659L0,147.2v7.026l13.612,3.293,4.61,1.1,14.71,3.513,18,4.391,4.391,1.1,1.756-1.976L69.6,152.028l11.636-12.734L93.527,125.9l-1.317-1.1Z" transform="translate(0 82.01)" fill="#276ef1"/>
      <path id="Path_38" data-name="Path 38" d="M85.318,105.775l-4.171,4.83L71.047,122.9l-9.88,11.856-1.1,1.317-10.1,12.295-.659.878a4.212,4.212,0,0,1-4.391,1.317l-6.147-1.976-11.636-3.513a4.032,4.032,0,0,1-2.635-5.05l.439-.878c0-.22.22-.439.439-.659l.439-.439,10.1-12.295L46.9,112.581,57,100.287,62.485,93.7l.659-.659a4.028,4.028,0,0,1,5.05-1.1l9.88,4.61,6.147,2.854a4.528,4.528,0,0,1,1.1,6.367Z" transform="translate(29.066 109.381)" fill="#fff"/>
      <path id="Path_40" data-name="Path 40" d="M80.446,105.819l-10.1,12.295-3.952-1.537,5.928-14.051ZM58.271,96.378l-5.928,14.051-6.367-2.635L56.076,95.5ZM45.757,125.8l-5.928,14.051L24.9,133.482,35,120.968Z" transform="translate(29.767 114.168)" fill="#a0bff9"/>
      <path id="Path_41" data-name="Path 41" d="M59.222,121.244l-5.708,13.612L52.2,136.173l-13.612-5.708L45.171,115.1ZM42.1,148.467l-.659.878a4.212,4.212,0,0,1-4.391,1.317L30.9,148.687l1.756-4.171ZM69.76,96.435l-4.61,10.758L51.1,101.265,54.392,93.8l.659-.659a4.028,4.028,0,0,1,5.05-1.1Z" transform="translate(36.94 109.501)" fill="#a0bff9"/>
      <path id="Path_42" data-name="Path 42" d="M44.175,110.005l6.038-14.132,14.134,6.04-6.04,14.132ZM51.24,131.06l-10.1,12.295L31.7,139.4l5.928-14.051Z" transform="translate(37.897 114.614)" fill="#5b91f4"/>
      <path id="Path_88" data-name="Path 88" d="M14.671,80.4l31.4,22.174L35.089,116.845,10.5,108.5Z" transform="translate(12.552 96.116)" fill="#276ef1"/>
    </g>
    <g id="klok">
      <path id="Path_21" data-name="Path 21" d="M204.738,89.769a63.669,63.669,0,1,0-63.669,63.669A62.766,62.766,0,0,0,165,148.827,63.685,63.685,0,0,0,204.738,89.769Z" transform="translate(92.53 31.202)" fill="#d4e2fc"/>
      <path id="Path_22" data-name="Path 22" d="M190.835,84.867a54.667,54.667,0,1,0-54.667,54.667,52.867,52.867,0,0,0,20.418-3.952A54.773,54.773,0,0,0,190.835,84.867Z" transform="translate(97.431 36.103)" fill="#fff"/>
      <path id="Path_23" data-name="Path 23" d="M106.4,54h45.666v4.83H106.4Z" transform="translate(127.198 64.556)" fill="#d4e2fc"/>
      <circle id="Ellipse_2" data-name="Ellipse 2" cx="7.026" cy="7.026" r="7.026" transform="translate(254.895 113.945)" fill="#d4e2fc"/>
      <path id="Path_24" data-name="Path 24" d="M102.093,97.13,98.8,93.836l14.271-14.271V33.9h4.83V80.444a2.493,2.493,0,0,1-.659,1.756L102.093,97.13Z" transform="translate(118.113 40.527)" fill="#d4e2fc"/>
    </g>
    <g id="hand">
      <path id="Path_2" data-name="Path 2" d="M312.45,66.769c-1.317-1.756-2.635-3.513-3.732-5.269a20.81,20.81,0,0,0-3.513,8.123c-.659,3.513-1.976,12.075-2.415,15.807a10.657,10.657,0,0,0,0,3.732c.22,1.756.878,6.147.878,6.147l1.976,6.367-.22,4.61a9.509,9.509,0,0,1,.22,1.1c1.317,2.854,7.245,1.1,9.88-4.391a12.63,12.63,0,0,0,1.1-5.708l-.439-8.123L318.6,75.331c-2.2-3.074-4.171-5.928-6.147-8.562Z" transform="translate(361.78 73.522)" fill="#662a16"/>
      <path id="Path_3" data-name="Path 3" d="M307.6,78.686c1.976,3.293,6.586,11.2,8.782,14.71a11.553,11.553,0,0,0,2.635,3.074c1.317,1.317,2.2,1.976,3.293,3.074l4.391,2.635,2.854,3.952c4.61,3.952,8.123-7.026,3.513-12.295s-7.026-8.343-7.026-8.343L317.919,62,307.6,78.686Z" transform="translate(367.728 74.119)" fill="#662a16"/>
      <path id="Path_5" data-name="Path 5" d="M313.2,78.005c2.415,2.415,8.562,7.684,11.2,10.319a11.162,11.162,0,0,0,2.854,1.976c1.1.439,3.293,1.537,3.293,1.537l3.952.659,4.171,3.074c5.05,2.415,5.269-7.9,0-11.416s-8.123-5.269-8.123-5.269L317.591,61.1,313.2,78.005Z" transform="translate(374.423 73.043)" fill="#662a16"/>
      <path id="Path_6" data-name="Path 6" d="M348.042,63.292,335.528,90.516,300.4,89.2l18-39.3Z" transform="translate(359.121 59.654)" fill="#3d281e"/>
      <path id="Path_7" data-name="Path 7" d="M295.7,209.76A1.738,1.738,0,0,1,294.6,208L332.8,64.2l3.293,13.831-38.64,130.631A1.357,1.357,0,0,1,295.7,209.76Z" transform="translate(352.187 76.749)" fill="#afafaf"/>
      <path id="Path_9" data-name="Path 9" d="M406.247,60.583,419.2,98.126c-18.222,10.758-23.272,10.758-29.2,9.66-17.344,10.1-31.4-10.319-48.52-5.489l-6.806-18L340.6,81.22c5.928-3.074,5.928-12.953,2.2-11.2S314.916,83.2,314.916,83.2l-6.586,14.271-1.756,7.9a11.966,11.966,0,0,1-2.635,5.269c-3.952,4.83-10.1,4.83-10.538,1.756v-.439l1.537-5.05-.439-4.83c.439-3.074.659-5.928.878-7.9a12.049,12.049,0,0,1,1.1-3.732c1.537-3.513,5.05-11.2,6.586-14.49a18.391,18.391,0,0,1,5.489-6.806L336.87,47.191a15.557,15.557,0,0,1,16.247-1.756l28.541,13.392a32.061,32.061,0,0,0,24.589,1.756Z" transform="translate(350.752 52.484)" fill="#993f21"/>
      <path id="Path_11" data-name="Path 11" d="M276.355,198.176a1.214,1.214,0,0,1-.659-1.756L335.413,60.3l6.367,2.854L278.331,197.737a1.679,1.679,0,0,1-1.976.439Z" transform="translate(329.377 72.087)" fill="#afafaf"/>
      <path id="Path_12" data-name="Path 12" d="M335.7,80.283s-13.612,4.171-26.346,7.9-14.271-8.782-5.05-13.392L328.9,62.5,335.7,80.283Z" transform="translate(356.748 74.717)" fill="#993f21"/>
      <path id="Path_13" data-name="Path 13" d="M307.848,69.511a7.43,7.43,0,0,1,2.415,6.806,1.883,1.883,0,0,1-1.317,1.537l-4.83,1.756a5.13,5.13,0,0,1-3.074-8.782l4.83-1.756c.878-.22,1.537-.22,1.976.439Z" transform="translate(358.039 82.416)" fill="#c14f29"/>
      <path id="Path_14" data-name="Path 14" d="M302.8,94.032,330.024,31.9l8.123,3.732-28.98,61.473Zm20.2,8.782,17.344-65.645,8.562,2.415L329.8,104.79Z" transform="translate(361.99 38.136)" fill="#142328"/>
      <path id="Path_17" data-name="Path 17" d="M304.756,90.115c1.537-.22,1.756-4.391,1.537-7.026a3.911,3.911,0,0,0-2.2-3.513,3.709,3.709,0,0,0-1.1-.439l1.756,10.977Zm30.3.659c1.1-1.756-1.537-4.391-3.074-5.708a3.821,3.821,0,0,0-3.293-1.1c-.439,0-.659.22-.878.22Zm15.588-11.416c.439-1.756-2.415-3.513-4.391-4.391a3.477,3.477,0,0,0-3.293.22l-.439.439,8.123,3.732Z" transform="translate(362.229 89.255)" fill="#993f21"/>
      <path id="Path_18" data-name="Path 18" d="M364.533,44.4,341.7,49.23,354.434,110.7l25.907-5.05Z" transform="translate(408.494 53.079)" fill="#5b91f4"/>
      <path id="Path_19" data-name="Path 19" d="M485.837,30.5v78.159L362.89,128.418l-.878-3.952L349.278,62.554l-.878-4.171Z" transform="translate(416.503 36.462)"/>
      <path id="Path_20" data-name="Path 20" d="M354.06,45.1l12.734,61.912L344.4,47.076Z" transform="translate(411.721 53.916)" fill="#1e54b7"/>
      <circle id="Ellipse_1" data-name="Ellipse 1" cx="5.05" cy="5.05" r="5.05" transform="translate(777.418 97.479)" fill="#757575"/>
      <path id="Path_15" data-name="Path 15" d="M326.047,57.9c-1.317,4.83-3.513,6.147-6.806,7.9a36.31,36.31,0,0,1-3.732,1.756L309.8,78.1l15.149-2.635,1.1-17.564Z" transform="translate(370.358 69.218)" fill="#993f21"/>
      <path id="Path_16" data-name="Path 16" d="M293.4,80.5c1.756.22,2.635-4.171,3.074-6.586a3.017,3.017,0,0,0-.878-2.635c-.439-.439-.878-.659-1.1-.878Z" transform="translate(350.752 84.161)" fill="#c14f29"/>
    </g>
    <path id="Path_25" data-name="Path 25" d="M.5,105.356l.659-1.1L.5,103.6Z" transform="translate(0.598 123.851)" fill="#574191"/>
    <path id="Path_36" data-name="Path 36" d="M39.5,91.82a1.979,1.979,0,0,0-1.1-.22l.878.659.22-.439Z" transform="translate(45.906 109.505)" fill="#574191"/>
    <path id="Path_39" data-name="Path 39" d="M71.047,121.7l-9.66,12.075L67.1,120.163ZM62.266,92.5l-3.293,7.465-2.2-.878Zm23.052,12.075-4.171,4.83-8.123-3.513,4.61-10.758,6.147,2.854a4.561,4.561,0,0,1,1.537,6.586Zm-32.273,9.441-6.586,15.368L35.7,124.554l10.977-13.173ZM40.53,143.435l-1.756,4.171-11.636-3.513a4.032,4.032,0,0,1-2.635-5.05l.439-.878c0-.22.22-.439.439-.659l.439-.439,14.71,6.367Z" transform="translate(29.066 110.581)" fill="none"/>
    <path id="Path_43" data-name="Path 43" d="M85.318,105.775l-4.171,4.83L71.047,122.9l-9.88,11.856-1.1,1.317-10.1,12.295-.659.878a4.212,4.212,0,0,1-4.391,1.317l-6.147-1.976-11.636-3.513a4.032,4.032,0,0,1-2.635-5.05l.439-.878c0-.22.22-.439.439-.659l.439-.439,10.1-12.295L46.9,112.581,57,100.287,62.485,93.7l.659-.659a4.028,4.028,0,0,1,5.05-1.1l9.88,4.61,6.147,2.854a4.528,4.528,0,0,1,1.1,6.367Z" transform="translate(29.066 109.381)" fill="none"/>
    <path id="Path_44" data-name="Path 44" d="M492.622,342.892l127.118-.439,6.367-43.47a9.011,9.011,0,0,0-9-10.319l-124.7.439ZM164.179,135.2v43.47H144.2V155.179Z" transform="translate(172.387 161.628)" fill="#d4e2fc"/>
    <path id="Path_45" data-name="Path 45" d="M205.911,135.22V155.2H153.22V135.22Z" transform="translate(183.171 161.652)" fill="#d4e2fc"/>
    <path id="Path_46" data-name="Path 46" d="M317.444,155.179V178.67H297.465V135.2ZM187.911,178.67H354.547V342.453H187.911ZM161.126,237.29l-2.854,104.724H81.65L76.6,237.29Z" transform="translate(91.573 161.628)" fill="#d4e2fc"/>
    <path id="Path_47" data-name="Path 47" d="M131.882,186.243l-1.1,104.724H83.8l-5.05-104.724Zm35.786,0H74.8v-3.952a4.4,4.4,0,0,1,4.391-4.391H163.5a4.4,4.4,0,0,1,4.391,4.391v3.952Z" transform="translate(89.421 212.675)" fill="#d4e2fc"/>
    <path id="Path_48" data-name="Path 48" d="M122.938,200.9l-2.415,63.449H58.171L54,200.9Z" transform="translate(64.556 240.171)" fill="#d4e2fc"/>
    <path id="Path_49" data-name="Path 49" d="M97.251,200.9l-.878,63.449h-38.2L54,200.9Z" transform="translate(64.556 240.171)" fill="#d4e2fc"/>
    <path id="Path_50" data-name="Path 50" d="M144.669,205.843H51.8v-3.952a4.4,4.4,0,0,1,4.391-4.391H140.5a4.4,4.4,0,0,1,4.391,4.391v3.952Z" transform="translate(61.926 236.106)" fill="#d4e2fc"/>
    <path id="Path_51" data-name="Path 51" d="M208.894,112.9v48.959H186.5V135.513Z" transform="translate(222.956 134.969)" fill="#bc8b2c"/>
    <path id="Path_52" data-name="Path 52" d="M256.1,112.909v22.613H196.825V112.909Z" transform="translate(235.299 134.98)" fill="#ffcf70"/>
    <path id="Path_53" data-name="Path 53" d="M246.194,135.513v26.346H223.8V112.9Z" transform="translate(267.547 134.969)" fill="#bc8b2c"/>
    <path id="Path_54" data-name="Path 54" d="M167.5,135.2H355.433V342.892H167.5Z" transform="translate(200.242 161.628)" fill="#ffcf70"/>
    <ellipse id="Ellipse_5" data-name="Ellipse 5" cx="26.565" cy="21.735" rx="26.565" ry="21.735" transform="translate(459.293 452.487)" fill="#fff"/>
    <path id="Path_55" data-name="Path 55" d="M223.989,209.091c-.22.439-.878.439-1.317.22-1.317-.22-2.854-.22-4.171-.439l3.074-3.074c.439-.439.878-1.1,1.537-1.1.439,0,.659.439.878.659,0,.22,0,.22.22.439h.22c.22,0,.439-.22.659-.439a1.875,1.875,0,0,1,1.537,0c.439.22.439.659.659,1.1a.7.7,0,0,1,.659-.659c.439,0,.659.22.878.659.878.659,1.537,1.537,2.415,2.2a55.5,55.5,0,0,1-6.147.22c-1.1,0-4.171.439-5.05-.439-.659-.878.439-2.2,1.317-2.854" transform="translate(261.211 244.714)" fill="#fff"/>
    <path id="Path_56" data-name="Path 56" d="M220.751,207.63l-2.415,1.1a.852.852,0,0,0-.22,1.537.928.928,0,0,0,1.537-.22l1.1-2.415Zm11.2,0-2.415,1.1a.852.852,0,0,0-.22,1.537.928.928,0,0,0,1.537-.22l1.1-2.415Zm-9.221,2.635,2.635-.659a1.01,1.01,0,0,0,.659-1.537,1.028,1.028,0,0,0-1.756,0Z" transform="translate(260.277 248.151)" fill="#142328"/>
    <ellipse id="Ellipse_6" data-name="Ellipse 6" cx="26.565" cy="21.735" rx="26.565" ry="21.735" transform="translate(515.278 452.487)" fill="#fff"/>
    <path id="Path_57" data-name="Path 57" d="M249.489,209.091c-.22.439-.878.439-1.317.22-1.317-.22-2.854-.22-4.171-.439l3.074-3.074c.439-.439.878-1.1,1.537-1.1.439,0,.659.439.878.659,0,.22,0,.22.22.439h.22c.22,0,.439-.22.659-.439a1.875,1.875,0,0,1,1.537,0c.439.22.439.659.659,1.1a.7.7,0,0,1,.659-.659c.439,0,.659.22.878.659.878.659,1.537,1.537,2.415,2.2a55.5,55.5,0,0,1-6.147.22c-1.1,0-4.171.439-5.05-.439-.659-.878.439-2.2,1.317-2.854" transform="translate(291.696 244.714)" fill="#fff"/>
    <path id="Path_58" data-name="Path 58" d="M246.251,207.63l-2.415,1.1a.852.852,0,0,0-.22,1.537.928.928,0,0,0,1.537-.22l1.1-2.415Zm10.977,0-2.415,1.1a.852.852,0,0,0-.22,1.537.928.928,0,0,0,1.537-.22l1.1-2.415Zm-9,2.635,2.635-.659a1.01,1.01,0,0,0,.659-1.537,1.028,1.028,0,0,0-1.756,0Z" transform="translate(290.762 248.151)" fill="#142328"/>
    <path id="Path_59" data-name="Path 59" d="M353.716,239.8H224.4a17.943,17.943,0,0,1-18-18H371.5A17.623,17.623,0,0,1,353.716,239.8Z" transform="translate(246.746 265.156)" fill="#bc8b2c"/>
    <path id="Path_60" data-name="Path 60" d="M320.862,165.1l39.74,39.742-39.742,39.74L281.117,204.84Z" transform="translate(336.068 197.373)" fill="#333"/>
    <path id="Path_61" data-name="Path 61" d="M310.948,175A54.448,54.448,0,1,0,365.4,229.448,54.438,54.438,0,0,0,310.948,175Z" transform="translate(306.639 209.208)" fill="#ffc043"/>
    <circle id="Ellipse_7" data-name="Ellipse 7" cx="46.983" cy="46.983" r="46.983" transform="translate(570.604 391.673)" fill="#fff2d9"/>
    <circle id="Ellipse_8" data-name="Ellipse 8" cx="39.519" cy="39.519" r="39.519" transform="translate(578.068 399.137)" fill="#ffc043"/>
    <circle id="Ellipse_9" data-name="Ellipse 9" cx="32.054" cy="32.054" r="32.054" transform="translate(585.533 406.602)" fill="#fff2d9"/>
    <circle id="Ellipse_10" data-name="Ellipse 10" cx="24.37" cy="24.37" r="24.37" transform="translate(593.217 414.286)" fill="#ffc043"/>
    <circle id="Ellipse_11" data-name="Ellipse 11" cx="16.905" cy="16.905" r="16.905" transform="translate(600.682 421.751)" fill="#fff2d9"/>
    <circle id="Ellipse_12" data-name="Ellipse 12" cx="9.441" cy="9.441" r="9.441" transform="translate(608.146 429.215)" fill="#ffc043"/>
    <path id="Path_62" data-name="Path 62" d="M331.873,180.6A42.373,42.373,0,1,1,289.5,222.973,42.4,42.4,0,0,1,331.873,180.6Z" transform="translate(346.09 215.903)" fill="#ffc043"/>
    <path id="Path_63" data-name="Path 63" d="M325.3,186.1A30.3,30.3,0,1,1,295,216.4,30.358,30.358,0,0,1,325.3,186.1Z" transform="translate(352.665 222.478)" fill="#fff2d9"/>
    <path id="Path_64" data-name="Path 64" d="M318.6,191.6a18,18,0,1,1-18,18A18.084,18.084,0,0,1,318.6,191.6Z" transform="translate(359.36 229.053)" fill="#ffc043"/>
    <path id="Path_65" data-name="Path 65" d="M312.028,197.2a5.928,5.928,0,1,1-5.928,5.928A5.9,5.9,0,0,1,312.028,197.2Z" transform="translate(365.935 235.748)" fill="#fff2d9"/>
    <circle id="Ellipse_13" data-name="Ellipse 13" cx="42.373" cy="42.373" r="42.373" transform="translate(635.59 396.503)" fill="#ffc043"/>
    <path id="Path_66" data-name="Path 66" d="M327.808,253.716a34.908,34.908,0,1,1,34.908-34.908A35,35,0,0,1,327.808,253.716Z" transform="translate(350.154 219.848)" fill="#fff2d9"/>
    <path id="Path_67" data-name="Path 67" d="M323.624,241.948a27.224,27.224,0,1,1,27.224-27.224A27.219,27.219,0,0,1,323.624,241.948Z" transform="translate(354.339 224.151)" fill="#ffc043"/>
    <path id="Path_68" data-name="Path 68" d="M319.559,230.419a19.759,19.759,0,1,1,19.759-19.759A19.677,19.677,0,0,1,319.559,230.419Z" transform="translate(358.403 228.216)" fill="#fff2d9"/>
    <path id="Path_69" data-name="Path 69" d="M315.495,218.889a12.295,12.295,0,1,1,12.295-12.295A12.274,12.274,0,0,1,315.495,218.889Z" transform="translate(362.468 232.281)" fill="#ffc043"/>
    <path id="Path_70" data-name="Path 70" d="M311.43,207.26a4.83,4.83,0,1,1,4.83-4.83A4.873,4.873,0,0,1,311.43,207.26Z" transform="translate(366.532 236.226)" fill="#fff2d9"/>
    <path id="Path_71" data-name="Path 71" d="M329.425,193.168H317.789l-5.489-7.684h17.125a7.779,7.779,0,0,0,7.684-7.684h7.9A15.461,15.461,0,0,1,329.425,193.168Z" transform="translate(373.347 212.555)" fill="#ffc043"/>
    <path id="Path_72" data-name="Path 72" d="M254.4,188.056c-13.173,13.173,15.807,61.254,38.421,38.421C315.652,203.864,267.572,175.1,254.4,188.056Z" transform="translate(300.178 220.961)" fill="#fff"/>
    <circle id="Ellipse_14" data-name="Ellipse 14" cx="12.075" cy="12.075" r="12.075" transform="translate(568.408 423.068)" fill="#fa9269"/>
    <path id="Path_73" data-name="Path 73" d="M269.9,224h93.527v13.173H269.9Z" transform="translate(322.659 267.786)" fill="#870f00"/>
    <path id="Path_74" data-name="Path 74" d="M430.946,199.8v8.343a20.088,20.088,0,0,1-.22,3.732,31.086,31.086,0,0,1-.878,4.391,20.391,20.391,0,0,1-.878,2.854,32.089,32.089,0,0,1-11.636,15.368L387.7,255.126l-5.05,3.513H298.12L294.388,256l-30.956-21.516a32.86,32.86,0,0,1-11.856-15.368,10.869,10.869,0,0,1-.878-2.854,25.9,25.9,0,0,1-.878-4.391,22.579,22.579,0,0,1-.22-3.732V199.8H430.946Z" transform="translate(298.39 238.856)" fill="#870f00"/>
    <path id="Path_75" data-name="Path 75" d="M253.415,219.4H115.1l4.171,16.686a8.234,8.234,0,0,0,7.9,6.147H241.559a8.234,8.234,0,0,0,7.9-6.147l3.952-16.686Z" transform="translate(137.599 262.287)" fill="#66d19e"/>
    <path id="Path_76" data-name="Path 76" d="M261.373,224.621H112.3V220.23a4.873,4.873,0,0,1,4.83-4.83H256.543a4.873,4.873,0,0,1,4.83,4.83Z" transform="translate(134.252 257.505)" fill="#156a41"/>
    <path id="Path_77" data-name="Path 77" d="M253.415,205H115.1l4.171,16.686a8.234,8.234,0,0,0,7.9,6.147H241.559a8.234,8.234,0,0,0,7.9-6.147L253.415,205Z" transform="translate(137.599 245.072)" fill="#66d19e"/>
    <path id="Path_78" data-name="Path 78" d="M261.373,210.121H112.3V205.73a4.873,4.873,0,0,1,4.83-4.83H256.543a4.873,4.873,0,0,1,4.83,4.83Z" transform="translate(134.252 240.171)" fill="#156a41"/>
    <path id="Path_79" data-name="Path 79" d="M253.3,190.5v.439l-1.1,4.391-2.854,11.856a8.234,8.234,0,0,1-7.9,6.147H127.056a7.994,7.994,0,0,1-7.9-6.147L116.3,195.33l-1.1-4.391V190.5Z" transform="translate(137.719 227.738)" fill="#66d19e"/>
    <path id="Path_80" data-name="Path 80" d="M165.156,190.5v.439l-1.1,4.391L161.2,207.186a8.234,8.234,0,0,1-7.9,6.147h42.592a7.994,7.994,0,0,0,7.9-6.147l2.854-11.856,1.1-4.391V190.5Zm0,32.054v.439l-1.1,4.391L161.2,239.24a8.234,8.234,0,0,1-7.9,6.147h42.592a7.994,7.994,0,0,0,7.9-6.147l2.854-11.856,1.1-4.391v-.439Zm0,31.834v.439l-1.1,4.391L161.2,271.074a8.233,8.233,0,0,1-7.9,6.147h42.592a7.994,7.994,0,0,0,7.9-6.147l2.854-11.856,1.1-4.391v-.439Z" transform="translate(183.266 227.738)" fill="#06c167"/>
    <path id="Path_81" data-name="Path 81" d="M261.373,191.23v4.391H112.3V191.23a4.873,4.873,0,0,1,4.83-4.83H256.543A4.869,4.869,0,0,1,261.373,191.23Z" transform="translate(134.252 222.836)" fill="#156a41"/>
    <path id="Path_82" data-name="Path 82" d="M150.4,222H93.1a17.147,17.147,0,0,0,17.125,17.125H133.5A17.1,17.1,0,0,0,150.4,222Z" transform="translate(111.299 265.395)" fill="#fff"/>
    <path id="Path_83" data-name="Path 83" d="M155.947,225.986H91.4v-4.171a2.436,2.436,0,0,1,2.415-2.415h59.936a2.436,2.436,0,0,1,2.415,2.415v4.171Z" transform="translate(109.266 262.287)" fill="#05a357"/>
    <path id="Path_84" data-name="Path 84" d="M150.4,211.7H93.1a17.147,17.147,0,0,0,17.125,17.125H133.5A17.246,17.246,0,0,0,150.4,211.7Z" transform="translate(111.299 253.082)" fill="#fff"/>
    <path id="Path_85" data-name="Path 85" d="M155.947,215.686H91.4v-4.171a2.436,2.436,0,0,1,2.415-2.415h59.936a2.436,2.436,0,0,1,2.415,2.415v4.171Z" transform="translate(109.266 249.974)" fill="#05a357"/>
    <path id="Path_86" data-name="Path 86" d="M431.066,202v3.293a20.088,20.088,0,0,1-.22,3.732H249.72a22.579,22.579,0,0,1-.22-3.732V202Zm-.878,11.636a20.391,20.391,0,0,1-.878,2.854H251.7a10.869,10.869,0,0,1-.878-2.854h179.37Z" transform="translate(298.271 241.486)" fill="#e11900"/>
    <path id="Path_87" data-name="Path 87" d="M196.7,135.2h59.5v59.5H196.7Z" transform="translate(235.15 161.628)" fill="#06c167"/>
  </g>
</svg>
