<svg width="558" height="372" viewBox="0 0 558 372" fill="none" xmlns="http://www.w3.org/2000/svg">
<g clip-path="url(#clip0)">
<path opacity="0.36" d="M570.4 -11.1001H-10.3999V383.4H570.4V-11.1001Z" fill="#E1E1E1"/>
<path d="M-34.7 0.0998535V116.4H97.1001C121.7 116.4 145.3 106.6 162.8 89.1999L194.9 56.9999C212.3 39.5999 235.9 29.7999 260.6 29.7999H487.3C511.9 29.7999 535.5 19.9999 553 2.59985L555.5 0.0998535H-34.7Z" fill="white"/>
<path d="M470.4 266.2C466.3 257.9 463.6 249.2 463.6 239.9L384.3 242.2C384.3 251.4 383.2 260.5 383.2 269.7C383.2 272 383.3 274.3 383.4 276.5H442.2H459.8H476.2C474.1 273.1 472.1 269.7 470.4 266.2Z" fill="black"/>
<path d="M476.5 464.1L480.5 375.6C480.6 373.1 481.3 370.6 482.5 368.4C485.6 362.8 491.5 348.8 491.5 325.1C491.5 314.4 489.6 303.6 485.4 293.7C482.8 287.7 479.4 282.1 476.1 276.5H383.3C384.4 295.6 389.9 315 393.3 333.7C396.2 349.6 399.1 365.5 402 381.4C404.9 397.5 407.9 413.6 410.8 429.6C413.2 442.9 415.7 456.2 418.1 469.4C419.5 476.9 420.8 484.4 422.2 491.9C422.3 492.6 422.5 493.3 422.6 494L463 638.8H511L476.5 464.1Z" fill="black"/>
<path d="M453.7 28.2H401.9V143.4H453.7V28.2Z" fill="#5C3D2F"/>
<path d="M466.2 43.5999C466.2 43.3999 466.2 43.0999 466.1 42.8999C466.1 41.7999 465.9 40.7999 465.7 39.6999C465.7 39.4999 465.6 39.1999 465.5 38.9999C465.5 38.7999 465.4 38.5999 465.4 38.3999C461.1 16.8999 440.4 1.49991 419 5.19991C418.6 5.29991 418.2 5.29991 417.8 5.39991C414.9 5.99991 412.2 6.89991 409.5 8.19991L409.4 8.29991C406.7 9.59991 404.1 11.0999 401.7 12.8999L385.1 22.7999C379.4 26.3999 376.1 33.2999 377.5 40.2999C378.4 44.8999 381.1 48.5999 384.7 50.9999C384.2 47.5999 383.9 42.3999 385.2 37.2999C385.3 37.0999 385.1 37.7999 385.2 37.5999C385.3 37.2999 385.3 37.0999 385.4 36.7999L395.6 41.5999C399.3 43.7999 403.2 45.6999 407.2 47.2999C412.4 49.3999 417.8 51.0999 423.3 52.2999C424.8 52.5999 426.3 52.8999 427.8 53.0999C427.3 52.1999 426.9 51.2999 426.6 50.1999C425.7 45.4999 428.7 40.8999 433.4 39.8999C438.1 38.9999 442.7 41.9999 443.7 46.6999C444 48.1999 443.9 49.6999 443.4 51.0999V51.1999L443 52.0999V52.1999L442.3 54.0999H442.2L442.3 54.2999L442.1 54.8999L440.8 58.4999C439.3 62.8999 440.5 67.7999 444 70.8999L455.6 94.8999L466.2 125.3V43.5999Z" fill="#5C3D2F"/>
<path d="M453.5 79.2998L437 93.4998L427.7 101.9C419.6 113.4 409.9 126.7 401.8 138.2C395.3 147.4 384.7 157.6 386.4 170C387 174.4 389.4 178.6 390.6 182.9C392 187.6 392.9 192.5 393.5 197.4C395.2 212.3 392.5 227.6 383.8 240L469.4 237.8C469 232 469.3 225.9 470.1 223.5L483.9 184.1C485.1 180.9 485.7 177.5 485.7 174V132.4C485.8 124.9 486.2 116.2 475.9 104.8C474.3 103 453.5 79.2998 453.5 79.2998Z" fill="#2B6C47"/>
<path d="M463.6 239.9L384.3 242.2C378.9 253.1 377.5 264.6 379.2 276.5H425.8C435.8 276.5 444.8 270.6 448.9 261.5L451.1 256.6L453.3 261.5C457.3 270.6 466.4 276.5 476.4 276.5C474.4 273.1 472.4 269.7 470.7 266.2C466.3 257.9 463.6 249.2 463.6 239.9Z" fill="#2B6C47"/>
<path d="M325.8 194.4C325.8 191.2 328.4 188.5 331.7 188.5C334.9 188.5 337.6 191.1 337.6 194.4C337.6 197.7 335 200.3 331.7 200.3C328.4 200.2 325.8 197.6 325.8 194.4Z" fill="#37A76D"/>
<path d="M343.8 195.1C345.236 195.1 346.4 193.936 346.4 192.5C346.4 191.064 345.236 189.9 343.8 189.9C342.364 189.9 341.2 191.064 341.2 192.5C341.2 193.936 342.364 195.1 343.8 195.1Z" fill="#37A76D"/>
<path d="M311.3 213.8H376.2L369.8 205.2C356.8 187.7 330.6 187.7 317.6 205.2L311.3 213.8Z" fill="white"/>
<path d="M356 214H360.7C360.7 210.5 357.8 207.6 354.3 207.6C350.8 207.6 347.9 210.5 347.9 214H352.6" fill="#37A76D"/>
<path d="M323.1 213.8H328.4C328.4 212.3 327.2 211.2 325.8 211.2C324.3 211.1 323.1 212.3 323.1 213.8Z" fill="#37A76D"/>
<path d="M307.8 213.8V219C307.8 227.5 312 235.4 319.1 240.2H368.6C375.6 235.4 379.9 227.5 379.9 219V213.8H307.8Z" fill="#1D4730"/>
<path d="M342.2 206.7L344.9 204C345.5 203.4 345.5 202.4 344.9 201.8L342.2 199.1C341.6 198.5 340.6 198.5 340 199.1L337.3 201.8C336.7 202.4 336.7 203.4 337.3 204L340 206.7C340.7 207.3 341.6 207.3 342.2 206.7Z" fill="#F6BEA4"/>
<path d="M375.5 228.2L374.8 228.4C374.2 228.3 373.7 228.1 373.1 227.8L368.1 225.3C365.5 224 362.7 223.3 359.8 223.3H358.4C356.4 223.3 354.6 224.2 353.2 225.6C352.4 226.4 351.4 226.8 350.3 226.8H347.3C346.8 226.8 346.4 226.7 345.9 226.6L335.5 222.9C334.7 222.6 333.9 222.7 333.2 223.1C331.9 224 331.9 225.9 333.1 226.8L343.4 233L347.1 235.2C347.8 235.6 347.6 236.7 346.8 236.8L337.4 238.1H325.9L317.7 235.9L312.5 231.8C311.8 231.2 310.8 230.9 309.9 230.9C308.9 230.9 308.3 232.1 309 232.8L314.5 239.4C314.9 239.9 315.5 240.3 316.1 240.6L323.5 244.2C324.8 244.8 326.3 245.2 327.7 245.2H338.1C341 245.8 343.7 246.6 346.7 246C352.7 244.8 358.6 243.4 364.6 242.2L376.2 242.4V228.2H375.5Z" fill="#F3AEA8"/>
<path d="M490.4 219.8L488.9 219.1C474.6 212.3 458.6 210.2 443.1 213.3L375.7 228.4L374 242.3H485.4C485.7 242.3 486 242.3 486.2 242.3C498.3 241.6 501.3 225 490.4 219.8Z" fill="#F3AEA8"/>
<path d="M480.7 130.7L498.2 231.4C499 237 492.9 241 487.3 242C484.7 242.5 482 241.9 479.7 240.5C477.5 239.1 475.8 236.8 475.2 234.2L443.4 136.5L480.7 130.7Z" fill="#F3AEA8"/>
<path d="M485.6 126.9C485.5 126.5 477.2 121.5 476.7 121.6L428.3 135.8C427.8 135.9 427.6 136.5 427.8 136.9L432.3 145.2L444.6 167.9C444.7 168.2 445 168.3 445.4 168.3L452.5 167.7C459.7 167.1 465.9 162.3 468.3 155.5L468.8 154.2C469 153.6 469.9 153.5 470.2 154.1L471.1 155.8C474.3 161.7 480.8 165.3 487.5 164.9L485.6 126.9ZM484.3 159.8C483.9 159.3 483.6 158.7 483.3 158.2C483.6 158.7 483.9 159.2 484.3 159.8Z" fill="#2B6C47"/>
<path d="M389.2 76.0999L390.9 76.5999L389.2 76.0999Z" fill="#F6BEA4"/>
<path d="M442.4 65.9999C438.9 61.8999 437.5 58.5999 438.7 54.2999L439.8 50.7999L440 50.1999L439.9 50.0999H440L440.6 48.1999V48.0999L440.9 47.1999V47.0999C441.3 45.7999 441.3 44.2999 440.9 42.8999C439.8 38.3999 435.2 35.6999 430.7 36.7999C426.2 37.8999 423.5 42.4999 424.6 46.9999C424.9 47.9999 425.3 48.8999 425.8 49.6999C424.3 49.4999 422.9 49.2999 421.5 49.0999C416.2 48.1999 410.9 46.8999 405.8 45.0999C401.9 43.6999 398.1 42.0999 394.4 40.1999L384.6 35.0999C384.5 35.3999 384.5 35.5999 384.4 35.8999C384.3 36.0999 384.3 36.3999 384.2 36.5999C383.2 41.5999 383.7 46.5999 384.4 49.7999C384.6 50.8999 384.9 51.7999 385.1 52.3999C385.6 53.8999 385.5 55.3999 384.9 56.7999C383.2 60.5999 380.3 66.0999 380.3 66.0999C379.1 68.1999 380.2 69.7999 382.6 70.2999L387.2 71.4999L387.9 71.6999C388.5 72.0999 388.8 72.8999 388.4 73.5999C388.3 73.6999 388.3 73.7999 388.2 73.8999C387.8 74.3999 387.8 74.9999 388 75.3999C388.2 75.6999 388.5 75.9999 388.9 76.0999L390.7 76.4999L391 76.5999L390.6 78.8999C390.5 79.5999 390.9 80.2999 391.5 80.4999L391.8 80.5999L393.8 81.2999C395.4 81.7999 396.5 83.2999 396.6 84.8999L396.7 85.8999C397 90.3999 401.8 93.0999 405.9 91.0999C412.2 87.8999 422.8 83.8999 425.6 93.1999C426.6 96.4999 426.5 103.1 426.5 103.1C432.2 108.2 456.3 98.9999 459.4 86.3999C459.7 86.3999 442.4 65.9999 442.4 65.9999Z" fill="#F3AEA8"/>
<path d="M391.6 76.6H391.1L390.7 78.9C390.6 79.6 391 80.3 391.6 80.5L391.9 80.6L392 80.5C394.4 79.1 396.3 76.9 397.2 74.2L394.7 75.7C393.9 76.3 392.8 76.6 391.6 76.6Z" fill="#EA7467"/>
<path d="M192.4 128.4C192.2 128.1 191.9 127.8 191.5 127.6L185.7 124.2C179.3 120.5 179.7 117.9 180 111.7C180.4 105.5 179.8 101.5 168.1 90.5C166.5 88.9 164.7 87.5 162.8 86.2L100.5 131.7C100.7 132.2 100.9 132.7 101.1 133.2C104.2 140.8 109.7 147.1 116.8 151.3C117.3 151.6 117.8 151.9 118.2 152.2L118.7 152.6L118.9 152.7L119.3 153L119.5 153.2L119.9 153.5L120.1 153.7L120.5 154L120.7 154.2L121 154.5L121.2 154.7L121.5 155L121.7 155.3L122 155.6L122.2 155.9L122.5 156.3C122.6 156.4 122.7 156.5 122.7 156.6L123 157C123.1 157.1 123.1 157.2 123.2 157.3L123.5 157.7L123.7 158L123.9 158.4L124.1 158.7C124.2 158.8 124.3 159 124.3 159.1L124.5 159.4L124.7 159.8C124.8 159.9 124.8 160 124.9 160.1L125.1 160.5L125.3 160.8C125.4 160.9 125.4 161.1 125.5 161.2L125.7 161.5C125.8 161.8 126 162.1 126 162.2C126.1 162.3 126.1 162.5 126.2 162.6L126.3 163L126.4 163.4C126.4 163.5 126.5 163.6 126.5 163.8C126.6 163.9 126.6 164.1 126.6 164.2L126.7 164.6L126.8 165C126.8 165.1 126.9 165.2 126.9 165.4C127 165.5 127 165.7 127 165.8L127.1 166.2L127.2 166.6C127.3 166.7 127.2 166.8 127.3 167C127.4 167.1 127.4 167.3 127.4 167.4L127.5 167.8L127.6 168.2C127.6 168.3 127.7 168.5 127.6 168.6V171.5L159.7 170.3C160.1 169.5 161.3 168.3 162 167.7C163.8 165.8 166.2 164.6 168.9 164.5L182.6 163.7C183.9 163.6 185.2 163.2 186.2 162.4C187.3 161.6 188.1 160.6 188.7 159.4C189.9 156.5 188.3 153.8 187.6 151.9C187.5 151.6 187.4 151.3 187.4 151C187.4 150.9 187.4 150.8 187.4 150.7V150.6C187.4 150.4 187.5 150.1 187.6 149.9L189.3 147.7C189.8 147.1 189.8 146.2 189.3 145.6L187.6 143.6L189.2 141.9C189.6 141.5 189.7 141.1 189.7 140.6C189.6 140 189.3 139.4 188.6 139.2C188.1 139 187.7 138.6 187.5 138.1C187.5 138 187.4 137.9 187.4 137.7C187.4 137.5 187.3 137.4 187.3 137.2C187.3 136.9 187.3 136.5 187.5 136.2C187.6 135.9 187.8 135.6 188.1 135.4L192 131.8C192.3 131.5 192.5 131.2 192.7 130.8C192.8 130.4 192.9 130 192.9 129.6C192.7 129.2 192.6 128.8 192.4 128.4Z" fill="#99654D"/>
<path d="M189.7 140.6C189.7 141 189.6 141.5 189.2 141.9L187.5 143.5L184.3 140L184.7 140.4C185.5 141.3 186.9 141.3 187.8 140.5L189 139.4C189.4 139.7 189.6 140.1 189.7 140.6Z" fill="#744D3B"/>
<path d="M123.3 188.9C159.8 188.9 189.3 218.5 189.3 254.9V342.4L153.2 339.2L144.4 336.8" fill="#1D4730"/>
<path d="M122.2 196.9H137C148.2 196.9 158.3 203.6 162.7 213.9L180.9 256.9C183.3 262.6 183 269.2 180 274.6L177.6 279C174.9 283.9 173.5 287 173.5 292.6V317.8H122.2V196.9Z" fill="white"/>
<path d="M93.7002 130.2C94.6002 137.9 91.7002 147.1 86.7002 153.6L84.8002 156.1C80.9002 161.2 79.4002 167.8 80.6002 174.1C81.7002 179.7 80.6002 185.5 77.7002 190.3C73.8002 196.7 76.3002 205.3 83.0002 208.1L107.6 218.3L117 130.3L98.0002 117.4" fill="black"/>
<path d="M113.5 193.7L153.4 220.5C155 221.8 157.3 220.2 156.7 218.2L151.3 199.9C151 198.9 151 197.9 151.2 196.8L156.4 177.4C157.5 173.2 159.5 170.1 162.3 167.4L115.5 168.8L113.5 193.7Z" fill="#99654D"/>
<path d="M163.7 106.4C163.1 111 159.9 127 148.8 131.1L144.2 138.7L152.5 150.9C156.8 157.3 155.8 165.7 150.5 171.2C147.6 174.2 146 178.3 146.1 182.6C146.2 188.7 141.4 193.7 135.3 193.7C124.1 194 103.3 193.4 92.1 193.7C88.3 193.8 93.7 195.3 91.2 191.5C87.7 186.2 92.7 183.5 94.8 179.3C96.2 176.3 96.5 172.9 95.3 169.8V169.7L94.9 168.8C93.3 164.7 93.6 160 95.8 156.2L96.4 155.1C99 150.7 98.9 145.3 96.6 140.8C93.2 134.2 93.2 125.9 93.2 118.7V117.5C93.2 107.7 97.1 98.2 103.9 91.3L106.8 88.4C113.7 81.4 123 77.5 132.6 77.5H169.5C177.9 77.5 184.6 84 184.4 92.4C184.2 102 175 107.8 165.2 105.3C164.6 105.1 163.8 105.6 163.7 106.4Z" fill="black"/>
<path d="M151.2 155.6C155.066 155.6 158.2 152.466 158.2 148.6C158.2 144.734 155.066 141.6 151.2 141.6C147.334 141.6 144.2 144.734 144.2 148.6C144.2 152.466 147.334 155.6 151.2 155.6Z" stroke="#37A76D" stroke-width="2.5514" stroke-miterlimit="10"/>
<path d="M154 131.7C154.1 131.3 154.2 130.9 154.2 130.5C154.7 125.1 152.4 120.4 148.8 119.9C145.1 119.4 141.5 123.6 140.7 129.3C140 134.3 141.8 138.8 144.8 140.1C145.7 140.5 146.3 141.3 146.6 142.2L147 143.5C147.6 145.4 149.7 146.4 151.5 145.8C152.5 145.5 153 144.4 152.6 143.5L150.1 140L154 131.7Z" fill="#99654D"/>
<path d="M90.1 204.2C88.8 205.9 87.5 207.5 86.3 209.1C78.8 218.7 74.6 230.5 74.4 242.8L71.8 417.4H138.6V220.7C138.6 205.8 126.6 193.8 111.7 193.8C103.2 193.8 95.3 197.6 90.1 204.2Z" fill="#1D4730"/>
<path d="M195.3 369.7C194.6 365.7 192.6 362.1 189.5 359.4C186.4 356.8 182.5 355.3 178.4 355.4L104.5 355.6C100 355.6 95.7002 357.4 92.5002 360.6C89.3002 363.8 87.5002 368.1 87.5002 372.6L195.6 372.3L195.3 369.7Z" fill="black"/>
<path d="M-23.0999 495.1H352.1C405.6 495.1 448.9 451.8 448.9 398.3C448.9 344.8 405.6 301.5 352.1 301.5H-23.0999V495.1Z" fill="#B08877"/>
<path d="M195.9 317.1L196.7 345.3L239.3 337.1L239.9 337L260.5 334.1L267.1 317.1H195.9Z" fill="#99654D"/>
<path d="M162.7 317.2C157.8 317.3 153.6 313.8 152.8 308.9L137.8 215.1L80.4001 285.5L109.9 351.9C114.4 362 125.8 367 136.3 363.4L148.3 357.4C154.6 354.3 161.6 353.1 168.6 354.1L170.6 354.4C178.4 355.5 186.4 353.9 193.2 349.8L197.1 347.4C200.6 345.3 204.3 343.9 208.3 343.1L217.1 341.4V317.1H162.7V317.2Z" fill="#1D4730"/>
<path d="M195.504 372.203L347.104 372.203L347.104 362.503L195.504 362.503L195.504 372.203Z" fill="#333333"/>
<path d="M232.6 372.2H363.1L399 289.3C401.6 283.3 397.2 276.5 390.6 276.5H280.1C276.5 276.5 273.2 278.7 271.7 282L232.6 372.2Z" fill="white"/>
<path d="M321.8 341C321.8 341.1 321.8 341.2 321.8 341.2H392.3V341C392.3 339.5 392.6 338 393.2 336.7C394 334.8 394.2 332.6 393.6 330.5C393 328.4 391.7 326.6 390 325.5C387.5 323.8 385.8 321.2 385.4 318.1C385.1 316.1 384.1 314.1 382.5 312.7C380.9 311.2 378.8 310.5 376.8 310.5C373.8 310.5 371 309.2 369 306.9C367.7 305.3 365.8 304.2 363.7 303.9C363.3 303.8 362.9 303.8 362.4 303.8C360.7 303.8 359.1 304.3 357.7 305.2C355.2 306.8 352.2 307.3 349.4 306.4C347.4 305.8 345.2 305.9 343.2 306.8C341.2 307.7 339.7 309.3 338.9 311.2C337.7 314 335.3 316.1 332.4 316.9C330.5 317.5 328.7 318.7 327.5 320.6C326.3 322.5 325.9 324.6 326.2 326.7C326.6 329.7 325.7 332.8 323.8 335.1C322.6 336.7 321.8 338.8 321.8 341Z" fill="#37A76D"/>
<path d="M385 359.1C394.721 359.1 402.6 351.041 402.6 341.1C402.6 331.159 394.721 323.1 385 323.1C375.28 323.1 367.4 331.159 367.4 341.1C367.4 351.041 375.28 359.1 385 359.1Z" fill="#1D4730"/>
<path d="M385 353.8C391.849 353.8 397.4 348.114 397.4 341.1C397.4 334.086 391.849 328.4 385 328.4C378.152 328.4 372.6 334.086 372.6 341.1C372.6 348.114 378.152 353.8 385 353.8Z" fill="#37A76D"/>
<path d="M340.1 335.5C343.083 335.5 345.5 333.038 345.5 330C345.5 326.962 343.083 324.5 340.1 324.5C337.118 324.5 334.7 326.962 334.7 330C334.7 333.038 337.118 335.5 340.1 335.5Z" fill="#F3AEA8"/>
<path d="M382 361.6H342.3V372.2H382V361.6Z" fill="#F9DBD6"/>
<path d="M327.6 355.7L342.4 366H382L396.8 355.7C400.4 353.2 402.6 349 402.6 344.6V341.1H321.7V344.6C321.8 349 323.9 353.2 327.6 355.7Z" fill="#F9DBD6"/>
<path d="M353.2 341.1H348C348 331.2 355.9 323.1 365.6 323.1V328.4C358.8 328.4 353.2 334.1 353.2 341.1Z" fill="#1D4730"/>
<path d="M152.8 138.7H150.3V144.2H152.8V138.7Z" fill="#99654D"/>
</g>
<defs>
<clipPath id="clip0">
<rect width="558" height="372" fill="white"/>
</clipPath>
</defs>
</svg>
