<svg xmlns="http://www.w3.org/2000/svg" xmlns:xlink="http://www.w3.org/1999/xlink" width="902" height="602" viewBox="0 0 902 602">
  <defs>
    <clipPath id="clip-path">
      <rect id="Rectangle_1" data-name="Rectangle 1" width="902" height="602" transform="translate(0 -0.213)" fill="#fff"/>
    </clipPath>
  </defs>
  <g id="hero" transform="translate(0 0.213)" clip-path="url(#clip-path)">
    <path id="Path_229" data-name="Path 229" d="M929.164-11.1H-10.4V627.085H929.164Z" transform="translate(-6.424 -6.856)" fill="#e1e1e1" opacity="0.36"/>
    <path id="Path_230" data-name="Path 230" d="M-34.7.1v188.14H178.514a150.786,150.786,0,0,0,106.283-44l51.928-52.09a150.222,150.222,0,0,1,106.283-44H809.743a150.787,150.787,0,0,0,106.283-44L920.07.1Z" transform="translate(-21.434 0.062)" fill="#fff"/>
    <path id="Path_231" data-name="Path 231" d="M524.264,282.446c-6.633-13.427-11-27.5-11-42.546l-128.284,3.721c0,14.883-1.779,29.6-1.779,44.487,0,3.721.162,7.441.323,11H533.647A189.619,189.619,0,0,1,524.264,282.446Z" transform="translate(236.705 148.188)"/>
    <path id="Path_232" data-name="Path 232" d="M534.07,579.982l6.471-143.167a26.755,26.755,0,0,1,3.235-11.648c5.015-9.059,14.559-31.707,14.559-70.047a130.341,130.341,0,0,0-9.868-50.8c-4.206-9.706-9.706-18.765-15.045-27.825H383.3c1.779,30.9,10.677,62.282,16.177,92.533L413.551,446.2c4.691,26.045,9.544,52.09,14.236,77.974,3.883,21.515,7.927,43.031,11.809,64.385,2.265,12.133,4.368,24.266,6.633,36.4.162,1.132.485,2.265.647,3.4L512.231,862.6h77.65Z" transform="translate(236.767 170.796)"/>
    <path id="Path_233" data-name="Path 233" d="M485.7,28.2H401.9V214.56h83.8Z" transform="translate(248.256 17.419)" fill="#5c3d2f"/>
    <path id="Path_234" data-name="Path 234" d="M521.189,67.66a2.752,2.752,0,0,0-.162-1.132,28.317,28.317,0,0,0-.647-5.177,3,3,0,0,0-.324-1.132c0-.324-.162-.647-.162-.971C512.938,24.467,479.452-.446,444.833,5.54c-.647.162-1.294.162-1.941.324a57.117,57.117,0,0,0-13.427,4.53l-.162.162A74.576,74.576,0,0,0,416.847,18L389.993,34.011A27.335,27.335,0,0,0,377.7,62.321a26.9,26.9,0,0,0,11.647,17.309,58.344,58.344,0,0,1,.809-22.163c.162-.324-.162.809,0,.485.162-.485.162-.809.323-1.294l16.5,7.765a134.485,134.485,0,0,0,18.765,9.221,161.867,161.867,0,0,0,26.045,8.089c2.427.485,4.853.971,7.28,1.294a20.394,20.394,0,0,1-1.941-4.691,14.118,14.118,0,1,1,27.663-5.662,13.273,13.273,0,0,1-.485,7.118v.162l-.647,1.456v.162l-1.132,3.074h-.162l.162.324-.323.971-2.1,5.824a18.685,18.685,0,0,0,5.177,20.06l18.765,38.825,17.148,49.178Z" transform="translate(232.986 2.872)" fill="#5c3d2f"/>
    <path id="Path_235" data-name="Path 235" d="M493.29,79.3l-25.92,22.971L452.762,115.86c-12.724,18.6-27.962,40.119-40.686,58.723-10.211,14.883-26.862,31.384-24.192,51.443.943,7.118,4.713,13.912,6.6,20.868a147.18,147.18,0,0,1,4.556,23.457c2.094,18.9-1.914,42.066-8.528,60.029-1.714,4.657.327,6.864-2.625,11.2l13.916-.627,116.467-5.244c-.628-9.383-.157-19.251,1.1-23.133l21.678-63.738a47.6,47.6,0,0,0,2.828-16.339V165.2c.157-12.133.785-26.207-15.395-44.649C525.965,117.64,493.29,79.3,493.29,79.3Z" transform="translate(231.623 59.984)" fill="#2b6c47"/>
    <path id="Path_236" data-name="Path 236" d="M516.156,239.9l-128.284,3.721c-8.736,17.633-11,36.237-8.25,55.487h75.385a41.008,41.008,0,0,0,37.369-24.266l3.559-7.927,3.559,7.927a40.836,40.836,0,0,0,37.369,24.266c-3.235-5.5-6.471-11-9.221-16.662C520.523,269.019,516.156,254.945,516.156,239.9Z" transform="translate(233.813 148.188)" fill="#2b6c47"/>
    <g id="arm3" transform="translate(-9 6)">
      <path id="Path_237" data-name="Path 237" d="M325.8,198.044a9.544,9.544,0,0,1,19.089,0,9.46,9.46,0,0,1-9.544,9.544A9.667,9.667,0,0,1,325.8,198.044Z" transform="translate(201.249 116.438)" fill="#37a76d"/>
      <path id="Path_238" data-name="Path 238" d="M345.406,198.312a4.206,4.206,0,1,0-4.206-4.206A4.206,4.206,0,0,0,345.406,198.312Z" transform="translate(210.761 117.303)" fill="#37a76d"/>
      <path id="Path_239" data-name="Path 239" d="M311.3,227.22H416.289l-10.353-13.912a52.6,52.6,0,0,0-84.444,0Z" transform="translate(192.292 118.646)" fill="#fff"/>
      <path id="Path_240" data-name="Path 240" d="M361,217.953h7.6a10.353,10.353,0,1,0-20.707,0h7.6" transform="translate(214.9 128.236)" fill="#37a76d"/>
      <path id="Path_241" data-name="Path 241" d="M323.1,215.41h8.574a4.177,4.177,0,0,0-4.206-4.206A4.12,4.12,0,0,0,323.1,215.41Z" transform="translate(199.581 130.456)" fill="#37a76d"/>
      <path id="Path_242" data-name="Path 242" d="M307.8,213.8v8.412a41.3,41.3,0,0,0,18.28,34.3h80.077a41.707,41.707,0,0,0,18.28-34.3V213.8Z" transform="translate(190.13 132.066)" fill="#1d4730"/>
      <path id="Path_243" data-name="Path 243" d="M345.5,211.673l4.368-4.368a2.539,2.539,0,0,0,0-3.559l-4.368-4.368a2.539,2.539,0,0,0-3.559,0l-4.368,4.368a2.539,2.539,0,0,0,0,3.559l4.368,4.368A2.537,2.537,0,0,0,345.5,211.673Z" transform="translate(208.074 122.708)" fill="#f6bea4"/>
      <path id="Path_244" data-name="Path 244" d="M416.765,231.582l-1.132.324a9.342,9.342,0,0,1-2.75-.971l-8.089-4.044a29.866,29.866,0,0,0-13.427-3.235H389.1a11.908,11.908,0,0,0-8.412,3.721A6.479,6.479,0,0,1,376,229.317h-4.853a10.925,10.925,0,0,1-2.265-.324l-16.824-5.986a4.284,4.284,0,0,0-3.721.324,3.714,3.714,0,0,0-.162,5.986l16.662,10.03,5.986,3.559a1.4,1.4,0,0,1-.485,2.588l-15.206,2.1h-18.6l-13.265-3.559-8.412-6.633a6.646,6.646,0,0,0-4.206-1.456,1.854,1.854,0,0,0-1.456,3.074l8.9,10.677a7.787,7.787,0,0,0,2.588,1.941l11.971,5.824a16.746,16.746,0,0,0,6.794,1.618h16.824c4.691.971,9.059,2.265,13.912,1.294,9.706-1.941,19.251-4.206,28.957-6.147l18.765.324V231.582Z" transform="translate(190.684 137.579)" fill="#f3aea8"/>
      <path id="Path_245" data-name="Path 245" d="M562.3,224.68l-2.427-1.132a118.27,118.27,0,0,0-74.091-9.383L376.75,238.592,374,261.078H555.507C575.081,259.946,579.934,233.092,562.3,224.68Z" transform="translate(231.022 130.893)" fill="#f3aea8"/>
      <path id="Path_246" data-name="Path 246" d="M503.741,130.7l28.31,162.9c1.294,9.059-8.574,15.53-17.633,17.148a17.418,17.418,0,0,1-12.295-2.427,16.771,16.771,0,0,1-7.28-10.192L443.4,140.083Z" transform="translate(273.891 80.734)" fill="#f3aea8"/>
      <path id="Path_247" data-name="Path 247" d="M499.478,130.175c-.124-.647-10.414-8.736-11.034-8.574l-60.006,22.971c-.62.162-.868,1.132-.62,1.779l5.579,13.427L448.647,196.5c.124.485.5.647.992.647l8.8-.971c8.927-.971,16.613-8.736,19.589-19.736l.62-2.1c.248-.971,1.364-1.132,1.736-.162l1.116,2.75c3.967,9.544,12.026,15.368,20.333,14.721ZM497.867,183.4a24.568,24.568,0,0,1-1.24-2.588C497,181.618,497.371,182.427,497.867,183.4Z" transform="translate(284.445 75.112)" fill="#2b6c47"/>
    </g>
    <path id="Path_248" data-name="Path 248" d="M389.2,76.1l2.75.809Z" transform="translate(240.411 47.008)" fill="#f6bea4"/>
    <path id="Path_249" data-name="Path 249" d="M481.062,85.087c-5.662-6.633-7.927-11.971-5.986-18.927l1.779-5.662.324-.971-.162-.162h.162l.971-3.074V56.13l.485-1.456v-.162a12.13,12.13,0,0,0,0-6.794,13.595,13.595,0,0,0-26.369,6.633,17.9,17.9,0,0,0,1.941,4.368c-2.427-.324-4.691-.647-6.956-.971a153.879,153.879,0,0,1-25.4-6.471,154.392,154.392,0,0,1-18.442-7.927L387.558,35.1c-.162.485-.162.809-.324,1.294-.162.324-.162.809-.324,1.132a54.4,54.4,0,0,0,.324,21.354,29.573,29.573,0,0,0,1.132,4.206,9.815,9.815,0,0,1-.324,7.118c-2.75,6.147-7.441,15.045-7.441,15.045-1.941,3.4-.162,5.986,3.721,6.794l7.441,1.941,1.132.324a2.311,2.311,0,0,1,.809,3.074c-.162.162-.162.324-.324.485a2.286,2.286,0,0,0-.324,2.427,2.582,2.582,0,0,0,1.456,1.132l2.912.647.485.162-.647,3.721a2.382,2.382,0,0,0,1.456,2.588l.485.162,3.235,1.132a6.6,6.6,0,0,1,4.53,5.824l.162,1.618a10.282,10.282,0,0,0,14.883,8.412c10.192-5.177,27.339-11.647,31.869,3.4,1.618,5.338,1.456,16.015,1.456,16.015,9.221,8.25,48.208-6.633,53.223-27.016C509.048,118.088,481.062,85.087,481.062,85.087Z" transform="translate(234.612 21.682)" fill="#f3aea8"/>
    <path id="Path_250" data-name="Path 250" d="M392.165,78.082h-.809l-.647,3.721a2.382,2.382,0,0,0,1.456,2.588l.485.162.162-.162A18.735,18.735,0,0,0,401.225,74.2l-4.044,2.427A8.359,8.359,0,0,1,392.165,78.082Z" transform="translate(241.329 45.834)" fill="#ea7467"/>
    <path id="Path_251" data-name="Path 251" d="M249.167,154.467a3.819,3.819,0,0,0-1.456-1.294l-9.383-5.5c-10.353-5.986-9.706-10.192-9.221-20.221.647-10.03-.324-16.5-19.251-34.3a59.649,59.649,0,0,0-8.574-6.956L100.5,159.806l.971,2.427a60.564,60.564,0,0,0,25.4,29.28c.809.485,1.618.971,2.265,1.456l.809.647.324.162.647.485.324.324.647.485.324.324.647.485.324.324.485.485.324.324.485.485.324.485.485.485.324.485.485.647c.162.162.324.324.324.485l.485.647c.162.162.162.324.324.485l.485.647.324.485.324.647.324.485a1.226,1.226,0,0,1,.324.647l.324.485.324.647c.162.162.162.324.324.485l.324.647.324.485c.162.162.162.485.324.647l.324.485c.162.485.485.971.485,1.132.162.162.162.485.324.647l.162.647.162.647c0,.162.162.324.162.647a.973.973,0,0,1,.162.647l.162.647.162.647c0,.162.162.324.162.647a.973.973,0,0,1,.162.647l.162.647.162.647c.162.162,0,.324.162.647a.973.973,0,0,1,.162.647l.162.647.162.647c0,.162.162.485,0,.647v4.691l51.928-1.941a18.3,18.3,0,0,1,3.721-4.206,16.117,16.117,0,0,1,11.162-5.177l22.163-1.294a10.62,10.62,0,0,0,5.824-2.1,13.038,13.038,0,0,0,4.044-4.853c1.941-4.691-.647-9.059-1.779-12.133a4.722,4.722,0,0,1-.324-1.456v-.647a3,3,0,0,1,.324-1.132l2.75-3.559a2.681,2.681,0,0,0,0-3.4l-2.75-3.235,2.588-2.75a2.679,2.679,0,0,0,.809-2.1,2.6,2.6,0,0,0-1.779-2.265,3.2,3.2,0,0,1-1.78-1.779c0-.162-.162-.324-.162-.647s-.162-.485-.162-.809a2.917,2.917,0,0,1,.324-1.618,2.516,2.516,0,0,1,.971-1.294l6.309-5.824a5.81,5.81,0,0,0,1.132-1.618,8.12,8.12,0,0,0,.324-1.941C249.653,155.761,249.491,155.114,249.167,154.467Z" transform="translate(62.08 53.246)" fill="#99654d"/>
    <path id="Path_252" data-name="Path 252" d="M193.036,141.341a2.9,2.9,0,0,1-.809,2.1l-2.75,2.588-5.177-5.662.647.647a3.563,3.563,0,0,0,5.015.162L191.9,139.4A3,3,0,0,1,193.036,141.341Z" transform="translate(113.843 86.108)" fill="#744d3b"/>
    <path id="Path_253" data-name="Path 253" d="M123.3,188.9A106.77,106.77,0,0,1,230.069,295.669V437.218l-58.4-5.177-14.236-3.883" transform="translate(76.163 116.685)" fill="#1d4730"/>
    <path id="Path_254" data-name="Path 254" d="M122.2,196.9h23.942a45.227,45.227,0,0,1,41.575,27.5l29.442,69.561A32.958,32.958,0,0,1,215.7,322.6l-3.883,7.118c-4.368,7.927-6.633,12.942-6.633,22v40.766H122.2Z" transform="translate(75.484 121.627)" fill="#fff"/>
    <path id="Path_255" data-name="Path 255" d="M104.726,138.107c1.456,12.456-3.235,27.339-11.324,37.854l-3.074,4.044a36.751,36.751,0,0,0-6.794,29.119,37.048,37.048,0,0,1-4.691,26.207c-6.309,10.353-2.265,24.266,8.574,28.8l39.8,16.5,15.206-142.358L111.682,117.4" transform="translate(46.853 72.519)"/>
    <path id="Path_256" data-name="Path 256" d="M113.5,209.946,178.046,253.3a3.4,3.4,0,0,0,5.338-3.721l-8.736-29.6a10.462,10.462,0,0,1-.162-5.015l8.412-31.384a33.3,33.3,0,0,1,9.544-16.177l-75.709,2.265Z" transform="translate(70.11 103.404)" fill="#99654d"/>
    <path id="Path_257" data-name="Path 257" d="M209.231,124.252c-.971,7.441-6.147,33.325-24.1,39.957L177.686,176.5l13.427,19.736a26.2,26.2,0,0,1-3.235,32.839,25.636,25.636,0,0,0-7.118,18.442,17.508,17.508,0,0,1-17.471,17.957c-18.118.485-51.767-.485-69.885,0-6.147.162,2.588,2.588-1.456-3.559-5.662-8.574,2.427-12.942,5.824-19.736a19.547,19.547,0,0,0,.809-15.368v-.162l-.647-1.456a23.73,23.73,0,0,1,1.456-20.383l.971-1.779a23.99,23.99,0,0,0,.324-23.133c-5.5-10.677-5.5-24.1-5.5-35.751v-1.941a60.671,60.671,0,0,1,17.309-42.384l4.691-4.691A58.681,58.681,0,0,1,158.92,77.5h59.693c13.589,0,24.427,10.515,24.1,24.1-.324,15.53-15.206,24.913-31.06,20.868A2.021,2.021,0,0,0,209.231,124.252Z" transform="translate(55.588 47.872)"/>
    <path id="Path_258" data-name="Path 258" d="M155.524,164.248A11.324,11.324,0,1,0,144.2,152.924,11.324,11.324,0,0,0,155.524,164.248Z" transform="translate(89.073 87.467)" fill="none" stroke="#37a76d" stroke-miterlimit="10" stroke-width="2.551"/>
    <path id="Path_259" data-name="Path 259" d="M162.309,139.014a8.12,8.12,0,0,0,.324-1.941c.809-8.736-2.912-16.339-8.736-17.148-5.986-.809-11.809,5.986-13.1,15.206-1.132,8.089,1.779,15.368,6.633,17.471a5.519,5.519,0,0,1,2.912,3.4l.647,2.1a5.808,5.808,0,0,0,7.28,3.721,2.764,2.764,0,0,0,1.779-3.721L156,152.441Z" transform="translate(86.818 74.038)" fill="#99654d"/>
    <path id="Path_260" data-name="Path 260" d="M101.4,210.624c-2.1,2.75-4.206,5.338-6.147,7.927a90.862,90.862,0,0,0-19.251,54.517L71.8,555.519H179.863v-318.2A43.426,43.426,0,0,0,136.346,193.8,44.241,44.241,0,0,0,101.4,210.624Z" transform="translate(44.351 119.712)" fill="#1d4730"/>
    <path id="Path_261" data-name="Path 261" d="M261.889,378.536a28.436,28.436,0,0,0-9.383-16.662,26.946,26.946,0,0,0-17.957-6.471L115,355.726a27.617,27.617,0,0,0-27.5,27.5l174.874-.485Z" transform="translate(54.049 219.53)"/>
    <path id="Path_262" data-name="Path 262" d="M-23.1,614.688H583.864a156.594,156.594,0,0,0,0-313.188H-23.1Z" transform="translate(-14.269 186.239)" fill="#b08877"/>
    <path id="Path_263" data-name="Path 263" d="M195.9,317.1l1.294,45.619,68.914-13.265.971-.162L300.4,344.6l10.677-27.5Z" transform="translate(121.009 195.875)" fill="#99654d"/>
    <path id="Path_264" data-name="Path 264" d="M213.537,380.268a15.881,15.881,0,0,1-16.015-13.427L173.256,215.1,80.4,328.987,128.122,436.4a34.433,34.433,0,0,0,42.707,18.6l19.412-9.706a56.1,56.1,0,0,1,32.839-5.338l3.235.485a55.776,55.776,0,0,0,36.56-7.441l6.309-3.882a56.145,56.145,0,0,1,18.118-6.956l14.236-2.75v-39.31h-88Z" transform="translate(49.664 132.869)" fill="#1d4730"/>
    <path id="Path_265" data-name="Path 265" d="M195.5,378.195H440.748V362.5H195.5Z" transform="translate(120.764 223.921)" fill="#333"/>
    <path id="Path_266" data-name="Path 266" d="M232.6,431.315H443.711l58.076-134.108A14.839,14.839,0,0,0,488.2,276.5H309.441a15.085,15.085,0,0,0-13.589,8.9Z" transform="translate(143.679 170.796)" fill="#fff"/>
    <path id="Path_267" data-name="Path 267" d="M321.8,363.979v.324H435.848v-.324a16.753,16.753,0,0,1,1.456-6.956,15.188,15.188,0,0,0,.647-10.03,14.3,14.3,0,0,0-5.824-8.089,16.993,16.993,0,0,1-7.441-11.971,14.607,14.607,0,0,0-4.691-8.736,13.505,13.505,0,0,0-9.221-3.559,16.632,16.632,0,0,1-12.618-5.824,13.574,13.574,0,0,0-8.574-4.853,8.548,8.548,0,0,0-2.1-.162,13.964,13.964,0,0,0-7.6,2.265,15.83,15.83,0,0,1-13.427,1.941,14.357,14.357,0,0,0-10.03.647,13.577,13.577,0,0,0-6.956,7.118,16.152,16.152,0,0,1-10.515,9.221,14.322,14.322,0,0,0-10.03,15.854,17.849,17.849,0,0,1-3.883,13.589A16.142,16.142,0,0,0,321.8,363.979Z" transform="translate(198.778 187.659)" fill="#37a76d"/>
    <path id="Path_268" data-name="Path 268" d="M395.872,381.337c15.726,0,28.472-13.037,28.472-29.119S411.6,323.1,395.872,323.1,367.4,336.137,367.4,352.219,380.148,381.337,395.872,381.337Z" transform="translate(226.945 199.581)" fill="#1d4730"/>
    <path id="Path_269" data-name="Path 269" d="M392.66,369.49a20.551,20.551,0,1,0-20.06-20.545A20.306,20.306,0,0,0,392.66,369.49Z" transform="translate(230.157 202.855)" fill="#37a76d"/>
    <path id="Path_270" data-name="Path 270" d="M343.436,342.295a8.9,8.9,0,1,0-8.736-8.9A8.816,8.816,0,0,0,343.436,342.295Z" transform="translate(206.746 200.446)" fill="#f3aea8"/>
    <path id="Path_271" data-name="Path 271" d="M406.523,361.6H342.3v17.148h64.223Z" transform="translate(211.441 223.363)" fill="#f9dbd6"/>
    <path id="Path_272" data-name="Path 272" d="M331.244,364.719l23.942,16.662h64.061l23.942-16.662a22.013,22.013,0,0,0,9.383-17.957V341.1H321.7v5.662A22.168,22.168,0,0,0,331.244,364.719Z" transform="translate(198.716 210.7)" fill="#f9dbd6"/>
    <path id="Path_273" data-name="Path 273" d="M356.412,352.219H348c0-16.015,12.78-29.119,28.472-29.119v8.574C365.471,331.674,356.412,340.895,356.412,352.219Z" transform="translate(214.962 199.581)" fill="#1d4730"/>
    <path id="Path_274" data-name="Path 274" d="M154.344,138.7H150.3v8.9h4.044Z" transform="translate(92.841 85.676)" fill="#99654d"/>
  </g>
</svg>
