<svg xmlns="http://www.w3.org/2000/svg" width="902.34" height="504.959" viewBox="0 0 902.34 504.959">
  <g id="restaurant" transform="translate(0)">
    <path id="achtergrond" d="M0,0H902.34V504.959H0Z" transform="translate(0)" fill="#addec9"/>
    <path id="wit" d="M647.885,0c-28.322,32.932-66.962,57.521-108.237,71.353-56.863,19.1-118.995,19.1-177.614,7.026-21.955-4.61-46.1-12.295-68.718-6.367-24.37,6.147-37.1,30.737-29.2,54.887,10.319,31.834,54.448,50.935,80.793,67.182,9,5.489,18.222,11.416,25.028,19.54,5.708,6.586,9.441,14.71,12.075,23.052,8.343,28.322.439,59.936-17.564,83.428s-44.788,38.86-73.329,46.544l-107.8,11.2c-5.269-1.1-6.806-7.684-6.586-12.953.439-18,8.123-34.908,16.027-51.155s16.247-32.493,18.442-50.5c4.61-36.664-24.589-62.571-60.376-53.57-27.882,7.025-37.982,31.834-37.762,58.18.22,28.322-12.075,63.449-31.176,84.526-17.344,19.32-42.373,28.322-65.645,37.982C10.977,392.551,5.489,394.746,0,396.5V0Z" transform="translate(0)" fill="#fff"/>
    <g id="pan">
      <path id="Path_92" data-name="Path 92" d="M218.338,156.5l25.731-4.538L249.1,180.5l-25.729,4.536Z" transform="translate(261.017 181.668)" fill="#556268"/>
      <path id="Path_93" data-name="Path 93" d="M182.453,235.562c-21.955,2.2-44.129,2.2-63.449-6.586A61.415,61.415,0,0,1,83.217,183.09L81.9,175.845l37.982-7.245,3.293,14.71A61.792,61.792,0,0,0,158.961,229.2a95.352,95.352,0,0,0,23.492,6.367Z" transform="translate(97.909 201.557)" fill="#394145"/>
      <path id="Path_94" data-name="Path 94" d="M354.634,209.81c-25.907,25.028-67.4,29.419-100.992,37.982a315.312,315.312,0,0,1-47.422,8.343c-14.051,1.317-29.2,3.732-44.349,5.269a79.733,79.733,0,0,1-23.492-6.586,61.415,61.415,0,0,1-35.786-45.885L99.3,194.222l116.58-22.613L371.319,146.8l1.317,7.245C375.93,174.9,369.343,195.54,354.634,209.81Z" transform="translate(118.711 175.496)" fill="#142328"/>
      <path id="Path_95" data-name="Path 95" d="M348.7,150.116l1.756-40.616,69.6,56.863s-29.639,81.891-30.737,84.306c-.439,1.1-8.782-10.538-18-23.492" transform="translate(416.862 130.905)" fill="#231f20"/>
      <path id="Path_96" data-name="Path 96" d="M467.964,189.415l-90.893,1.976a9.779,9.779,0,0,0-6.367,2.635l-6.367,5.928c-7.465,7.026-13.612,12.734-23.053,17.125-1.1.439-2.2,1.1-3.293,1.537-12.953,5.269-26.565,1.756-40.4-1.1-6.147-1.317-6.586-9.88-12.295-11.636,2.2-6.586-.659-2.415,1.537-9l3.293-10.758,8.562-27,43.251-43.031,10.1-4.83a16.531,16.531,0,0,1,11.2-1.317l17.783,3.513,55.326-1.317,31.615,77.281Z" transform="translate(341.069 130.904)" fill="#c14f29"/>
      <path id="Path_99" data-name="Path 99" d="M228.941,185.441l3.952,22.174a6.389,6.389,0,0,0,10.319,3.952l4.611-3.513a75.864,75.864,0,0,1,11.416-7.025l59.936-28.322a119.865,119.865,0,0,1,46.1-11.416l75.963-3.074a8.721,8.721,0,0,0,8.343-10.538l-2.415-13.612a8.878,8.878,0,0,0-9.441-7.245l-95.942,6.586a50.507,50.507,0,0,0-16.027,3.952l-93.088,41.055a6.472,6.472,0,0,0-3.732,7.026Z" transform="translate(273.604 151.565)" fill="#142328"/>
      <path id="Path_100" data-name="Path 100" d="M484.641,96.7V248.846l-96.162,16.905-2.2-47.422a94.192,94.192,0,0,0-8.782-35.347l-28.1-58.4c19.54-1.317,32.493-2.415,52.033-4.61C410.215,119.094,449.075,107.458,484.641,96.7Z" transform="translate(417.699 115.602)" fill="#fff"/>
      <ellipse id="Ellipse_15" data-name="Ellipse 15" cx="157.416" cy="30.517" rx="157.416" ry="30.517" transform="translate(174.037 344.826) rotate(-10.003)" fill="#a1bdca"/>
      <path id="Path_101" data-name="Path 101" d="M369.424,155.825c-16.905,10.977-63.449,28.98-135.9,41.714a719.738,719.738,0,0,1-72.012,9.221c-33.81,2.415-57.741,1.1-70.036-1.976a4.962,4.962,0,0,1-1.537-9c16.905-10.977,63.449-28.98,135.9-41.714,10.758-1.976,21.077-3.513,30.956-4.83,55.765-7.684,94.186-6.367,111.091-2.415,4.171.878,5.05,6.586,1.537,9Z" transform="translate(104.799 171.74)" fill="#142328"/>
      <path id="Path_102" data-name="Path 102" d="M397.148,143.915c-10.758,0-20.2-1.1-29.858,4.171-8.562,4.611-16.247,10.977-25.467,13.831a25.683,25.683,0,0,1-4.391,1.1,42.635,42.635,0,0,1-5.269.439,82.105,82.105,0,0,1-18-1.756c-1.756-.22-3.732-.659-5.489-.878l-12.075-1.537-7.465,23.052-1.537,4.611a11.2,11.2,0,0,1-3.513,5.269,11.743,11.743,0,0,1-5.708,2.854,13.053,13.053,0,0,1-6.586-.659,12.086,12.086,0,0,1-7.465-12.075l1.756-23.052a16.24,16.24,0,0,1,4.391-10.1L294.4,122.619A31.441,31.441,0,0,1,317.672,112.3h49.4l30.078,31.615Z" transform="translate(315.942 134.252)" fill="#c14f29"/>
      <path id="Path_103" data-name="Path 103" d="M277.841,139.47l-8.123-.659a3.573,3.573,0,0,0-3.952,3.513l-.659,7.026a6.815,6.815,0,0,0,6.147,7.245l2.415.22a6.815,6.815,0,0,0,7.245-6.147l.659-7.026c-.22-2.2-1.756-4.171-3.732-4.171Z" transform="translate(316.913 165.92)" fill="#fa9269" opacity="0.57"/>
      <path id="Path_104" data-name="Path 104" d="M285.773,145.112a12.935,12.935,0,0,0-18.222,2.2l-10.538,13.831a12.978,12.978,0,1,0,20.418,16.027l10.538-13.831a12.935,12.935,0,0,0-2.2-18.222Z" transform="translate(303.932 170.158)" fill="#c14f29"/>
      <path id="Path_105" data-name="Path 105" d="M261.741,157.755l6.367,4.391a3.779,3.779,0,0,0,5.05-.878l3.732-5.489A6.367,6.367,0,0,0,275.134,147l-1.976-1.317a6.367,6.367,0,0,0-8.782,1.756l-3.732,5.489A3.794,3.794,0,0,0,261.741,157.755Z" transform="translate(311.058 172.883)" fill="#fa9269" opacity="0.81"/>
      <circle id="Ellipse_16" data-name="Ellipse 16" cx="6.806" cy="6.806" r="6.806" transform="translate(513.521 334.59)" fill="#556268"/>
      <circle id="Ellipse_17" data-name="Ellipse 17" cx="7.245" cy="7.245" r="7.245" transform="translate(818.473 345.787)" fill="#231f20"/>
      <path id="Path_106" data-name="Path 106" d="M304.254,141.614c-1.756-.22-3.732-.659-5.489-.878L286.69,139.2l-7.465,23.052-7.026-.22,6.806-23.492A13.174,13.174,0,0,1,291.52,129.1h1.1C298.765,129.759,303.815,133.93,304.254,141.614Z" transform="translate(325.408 154.336)" fill="#8e3928"/>
      <path id="Path_109" data-name="Path 109" d="M314.065,141.834a25.681,25.681,0,0,1-4.391,1.1,42.631,42.631,0,0,1-5.269.439c-5.708-.439-11.416-1.537-16.905-1.976l1.1-3.293a13.2,13.2,0,0,1,12.295-9h1.537C311.431,130.417,312.968,136.565,314.065,141.834Z" transform="translate(343.699 154.336)" fill="#8e3928"/>
      <path id="Path_110" data-name="Path 110" d="M291.988,190.237c.878-1.317,1.317-2.635,2.2-3.732.22-.439.878-1.317,1.317-1.317,1.1-.22,1.317,1.317,1.537,1.976a11.829,11.829,0,0,0,1.537,2.854,13.175,13.175,0,0,0,5.928,4.391,12.764,12.764,0,0,0,9.44-.22,16.7,16.7,0,0,0,4.171-2.635,17.828,17.828,0,0,1,1.976-2.2c-.439.439-1.1.878-1.537,1.317.878-.659,1.976-1.976,2.854-1.317s.878,1.976,1.317,2.854a12.424,12.424,0,0,0,6.367,5.708A11.8,11.8,0,0,0,344.24,190.9l12.295-34.249a11.823,11.823,0,0,0-21.516-9.66,13,13,0,0,0-25.028-6.586l-2.854,7.684a13,13,0,0,0-25.028-6.586l-13.392,37.323a13.111,13.111,0,0,0,7.684,16.686,13.383,13.383,0,0,0,15.588-5.269Z" transform="translate(320.33 157.745)" fill="#c14f29"/>
      <path id="Path_111" data-name="Path 111" d="M306.35,149.771l7.465,2.2a3.637,3.637,0,0,0,4.391-2.415l1.756-6.367a6.474,6.474,0,0,0-4.391-7.9l-2.2-.659a6.474,6.474,0,0,0-7.9,4.391l-1.756,6.367a4.292,4.292,0,0,0,2.635,4.391Zm23.931,6.806,6.806,1.976a3.142,3.142,0,0,0,3.952-2.2l1.756-5.708a5.87,5.87,0,0,0-3.952-7.245l-1.976-.659a5.87,5.87,0,0,0-7.245,3.952l-1.756,5.708c-.22,1.976.659,3.732,2.415,4.171Zm-51.594-5.708,7.465,2.2a3.637,3.637,0,0,0,4.391-2.415l1.756-6.367a6.474,6.474,0,0,0-4.391-7.9l-2.2-.659a6.474,6.474,0,0,0-7.9,4.391l-1.756,6.367a3.591,3.591,0,0,0,2.635,4.391Z" transform="translate(329.898 160.669)" fill="#fa9269" opacity="0.81"/>
      <path id="Path_112" data-name="Path 112" d="M256.8,146.2c-38.2,39.519-69.377,50.276-95.284,57.521-33.81,2.415-57.741,1.1-70.036-1.976a4.962,4.962,0,0,1-1.537-9c16.905-10.977,63.449-28.98,135.9-41.714C236.6,149.274,246.916,147.517,256.8,146.2Z" transform="translate(104.799 174.778)" fill="#556268"/>
    </g>
    <g id="groenten">
      <path id="Path_91" data-name="Path 91" d="M182.848,109.477c-9-2.415-18.222-.659-25.028,4.83l-.22.22c-6.806,5.489-10.319,13.831-9.88,23.272a3.945,3.945,0,0,0,.878,1.976,3.065,3.065,0,0,0,1.976.659,2.806,2.806,0,0,0,2.415-2.635,22.125,22.125,0,0,1,28.541-23.052,2.4,2.4,0,0,0,2.2-.439,2.016,2.016,0,0,0,.878-1.317,2.134,2.134,0,0,0-.22-1.976,1.865,1.865,0,0,0-1.537-1.537Z" transform="translate(176.552 129.61)" fill="#addec9"/>
      <path id="Path_113" data-name="Path 113" d="M163.987,138.115l2.635,2.415c.439.22,0,.878-.439.659l-3.513-.878a25.457,25.457,0,0,0-8.123-.659,13.892,13.892,0,0,1-15.368-10.538l-.878-3.732,3.513-1.1a14.361,14.361,0,0,1,17.344,7.245,16.1,16.1,0,0,0,4.83,6.586Z" transform="translate(165.334 147.735)" fill="#06c167"/>
      <path id="Path_114" data-name="Path 114" d="M138.828,124.2l12.953,7.9L138.169,125.3c-.22-.22-.439-.439-.22-.878a1.32,1.32,0,0,1,.878-.22Z" transform="translate(164.806 148.478)" fill="#0f462d"/>
      <path id="Path_115" data-name="Path 115" d="M191.5,162.059,194.8,163.6a.471.471,0,0,1-.22.878h-3.513a19.734,19.734,0,0,0-7.9,1.756,14.009,14.009,0,0,1-17.783-5.708l-1.976-3.293,3.074-2.2a14.133,14.133,0,0,1,18.662,1.976,16.309,16.309,0,0,0,6.367,5.05Z" transform="translate(195.34 182.191)" fill="#06c167"/>
      <path id="Path_117" data-name="Path 117" d="M156.141,142.188l3.293-4.61a.723.723,0,0,1,1.317.439l-.659,5.489a31.32,31.32,0,0,0,.878,12.734A22.455,22.455,0,0,1,147.579,182.8L142.09,185l-2.635-5.489a22.5,22.5,0,0,1,7.9-28.761A35.831,35.831,0,0,0,156.141,142.188Z" transform="translate(163.959 164.081)" fill="#06c167"/>
      <path id="Path_118" data-name="Path 118" d="M138.845,171.074,148.5,148.9l-7.684,22.833a1.066,1.066,0,0,1-1.317.659.978.978,0,0,1-.659-1.317Z" transform="translate(165.887 178.006)" fill="#0f462d"/>
      <path id="Path_119" data-name="Path 119" d="M154.4,76.232h8.123V72.5H154.4Z" transform="translate(184.581 86.672)" fill="#66d19e"/>
      <path id="Path_120" data-name="Path 120" d="M154.4,86.907h8.123V82.955H154.4Zm15.807-17.783,9.441-6.806L178.55,61l-9.441,6.806Z" transform="translate(184.581 72.924)" fill="#66d19e"/>
      <path id="Path_122" data-name="Path 122" d="M164.7,126.815l5.269,6.147,2.854-2.415-5.269-6.147Z" transform="translate(196.895 148.717)" fill="#156a41"/>
      <path id="Path_123" data-name="Path 123" d="M165.8,125.815l5.269,6.147,2.854-2.415-5.269-6.147Z" transform="translate(198.21 147.521)" fill="#05a357"/>
      <path id="Path_124" data-name="Path 124" d="M127.7,139.715l5.269,6.147,2.854-2.415-5.269-6.147Z" transform="translate(152.662 164.139)" fill="#addec9"/>
      <path id="Path_125" data-name="Path 125" d="M128.8,138.815l5.269,6.147,2.854-2.415-5.269-6.147Z" transform="translate(153.977 163.063)" fill="#addec9"/>
      <path id="Path_126" data-name="Path 126" d="M106.732,152.3,103,159.545l3.293,1.756,3.732-7.245Z" transform="translate(123.134 182.071)" fill="#156a41"/>
      <path id="Path_127" data-name="Path 127" d="M108.032,153l-3.732,7.245L107.593,162l3.732-7.245Z" transform="translate(124.688 182.907)" fill="#05a357"/>
      <path id="Path_128" data-name="Path 128" d="M107.043,76.814,106.6,75.5a2.916,2.916,0,0,1,2.415-3.952l1.317-.22.878-1.1a2.882,2.882,0,0,1,4.61,0l.878,1.1,1.317.22a3.035,3.035,0,0,1,2.415,3.952L120,76.814l.439,1.317a2.916,2.916,0,0,1-2.415,3.952l-1.317.22-.878,1.1a2.882,2.882,0,0,1-4.61,0l-.878-1.1-1.317-.22a3.035,3.035,0,0,1-2.415-3.952Z" transform="translate(127.214 82.577)" fill="#ffc043"/>
      <path id="Path_129" data-name="Path 129" d="M186.256,111.114l-.439-1.317a2.916,2.916,0,0,1,2.415-3.952l1.317-.22.878-1.1a2.882,2.882,0,0,1,4.611,0l.878,1.1,1.317.22a3.035,3.035,0,0,1,2.415,3.952l-.439,1.317.439,1.317a2.916,2.916,0,0,1-2.415,3.952l-1.317.22-.878,1.1a2.882,2.882,0,0,1-4.611,0l-.878-1.1-1.317-.22a3.035,3.035,0,0,1-2.415-3.952ZM136.419,222.205l-.439-1.317a2.916,2.916,0,0,1,2.415-3.952l1.317-.22.878-1.1a2.882,2.882,0,0,1,4.61,0l.878,1.1,1.317.22a3.035,3.035,0,0,1,2.415,3.952l-.439,1.317.439,1.317a2.916,2.916,0,0,1-2.415,3.952l-1.317.22-.878,1.1a2.882,2.882,0,0,1-4.61,0l-.878-1.1-1.317-.22a3.035,3.035,0,0,1-2.415-3.952ZM99.1,156.56l-.22-.659a1.433,1.433,0,0,1,1.1-1.976l.659-.22.439-.659a1.723,1.723,0,0,1,2.415,0l.439.659.659.22a1.433,1.433,0,0,1,1.1,1.976l-.22.659.22.659a1.433,1.433,0,0,1-1.1,1.976l-.659.22-.439.659a1.723,1.723,0,0,1-2.415,0l-.439-.659-.659-.22a1.433,1.433,0,0,1-1.1-1.976Z" transform="translate(118.037 123.582)" fill="#ff6937"/>
      <path id="Path_130" data-name="Path 130" d="M144.9,51.482l-.22-.659a1.433,1.433,0,0,1,1.1-1.976l.659-.22.439-.659a1.723,1.723,0,0,1,2.415,0l.439.659.659.22a1.433,1.433,0,0,1,1.1,1.976l-.22.659.22.659a1.433,1.433,0,0,1-1.1,1.976l-.659.22-.439.659a1.723,1.723,0,0,1-2.415,0l-.439-.659-.659-.22a1.433,1.433,0,0,1-1.1-1.976Z" transform="translate(172.789 56.755)" fill="#66d19e"/>
      <path id="Path_131" data-name="Path 131" d="M112.1,245.727l-.22-.659a1.433,1.433,0,0,1,1.1-1.976l.659-.22.439-.659a1.723,1.723,0,0,1,2.415,0l.439.659.659.22a1.433,1.433,0,0,1,1.1,1.976l-.22.659.22.659a1.433,1.433,0,0,1-1.1,1.976l-.659.22-.439.659a1.723,1.723,0,0,1-2.415,0l-.439-.659-.659-.22a1.433,1.433,0,0,1-1.1-1.976Zm7.465-143.145-.22-.659a1.433,1.433,0,0,1,1.1-1.976l.659-.22.439-.659a1.723,1.723,0,0,1,2.415,0l.439.659.659.22a1.433,1.433,0,0,1,1.1,1.976l-.22.659.22.659a1.433,1.433,0,0,1-1.1,1.976l-.659.22-.439.659a1.723,1.723,0,0,1-2.415,0l-.439-.659-.659-.22a1.433,1.433,0,0,1-1.1-1.976Zm92.649,41.275-.22-.659a1.433,1.433,0,0,1,1.1-1.976l.659-.22.439-.659a1.723,1.723,0,0,1,2.415,0l.439.659.659.22a1.433,1.433,0,0,1,1.1,1.976l-.22.659.22.659a1.433,1.433,0,0,1-1.1,1.976l-.659.22-.439.659a1.723,1.723,0,0,1-2.415,0l-.439-.659-.659-.22a1.433,1.433,0,0,1-1.1-1.976Z" transform="translate(133.578 117.844)" fill="#ffc043"/>
      <path id="Path_132" data-name="Path 132" d="M84.5,68.282l-.22-.659a1.433,1.433,0,0,1,1.1-1.976l.659-.22.439-.659a1.723,1.723,0,0,1,2.415,0l.439.659.659.22a1.433,1.433,0,0,1,1.1,1.976l-.22.659.22.659a1.433,1.433,0,0,1-1.1,1.976l-.659.22-.439.659a1.723,1.723,0,0,1-2.415,0l-.439-.659-.659-.22a1.433,1.433,0,0,1-1.1-1.976Z" transform="translate(100.583 76.839)" fill="#ff6937"/>
      <path id="Path_133" data-name="Path 133" d="M212.493,141.408c5.05-10.758,5.05-22.394,0-32.273v-.22a34.635,34.635,0,0,0-26.346-17.783,3.96,3.96,0,0,0-2.635.659,4.556,4.556,0,0,0-1.317,2.2A3.2,3.2,0,0,0,185.05,97.5a28.7,28.7,0,0,1,21.735,14.71c4.171,7.9,4.171,17.564,0,26.346a3.257,3.257,0,0,0,0,2.854,2.562,2.562,0,0,0,1.317,1.317,3.672,3.672,0,0,0,2.635.22c.659,0,1.317-.659,1.756-1.537ZM130.6,125.381c-10.1,6.147-16.466,16.027-17.344,27.224v.22c-.878,10.977,3.732,21.516,12.514,29.2a3.3,3.3,0,0,0,2.415.878,2.415,2.415,0,0,0,2.2-1.317,3.132,3.132,0,0,0-.439-4.391,29.236,29.236,0,0,1-10.319-24.15c.659-9,5.928-17.125,14.271-22.174a3.325,3.325,0,0,0,1.537-2.415,2.366,2.366,0,0,0-.439-1.756,2.793,2.793,0,0,0-1.976-1.537,2.437,2.437,0,0,0-2.415.22Z" transform="translate(135.27 108.876)" fill="#066336"/>
      <path id="Path_134" data-name="Path 134" d="M145.976,188.189a25.134,25.134,0,0,1-4.83,4.83c-4.171.439-8.123.659-12.075.878-5.05.439-9.88.659-14.271.878a4.07,4.07,0,0,1,1.537-.439h1.537c9.221,0,17.344-3.732,22.613-10.319,5.708-7.026,7.465-16.466,5.05-25.687v-.878a3.3,3.3,0,0,1,2.2-3.074,3.671,3.671,0,0,1,2.635.22,2.793,2.793,0,0,1,1.537,1.976C154.977,168.21,152.782,179.626,145.976,188.189Z" transform="translate(137.24 184.383)" fill="#05a357"/>
      <path id="Path_135" data-name="Path 135" d="M169.779,159.993a3.13,3.13,0,0,1-1.317,2.635,29.781,29.781,0,0,0-12.075,19.759c-2.2.439-4.391.878-6.586,1.1.659-10.1,5.928-19.54,14.71-26.126a5.215,5.215,0,0,1,2.635-.659,3.733,3.733,0,0,1,2.2,1.317,6.411,6.411,0,0,1,.439,1.976Z" transform="translate(179.082 187.331)" fill="#156a41"/>
      <path id="Path_137" data-name="Path 137" d="M126.751,83.447c-11.636,2.635-20.637,9.88-25.248,19.979v.22c-4.391,10.1-3.513,21.735,2.415,31.834a3.173,3.173,0,0,0,2.2,1.537,3.779,3.779,0,0,0,2.635-.439,3.2,3.2,0,0,0,1.1-4.391,29.058,29.058,0,0,1-1.976-26.126c3.513-8.123,11.2-14.051,20.637-16.247a2.863,2.863,0,0,0,2.2-1.976,2.478,2.478,0,0,0,.22-1.756,3.734,3.734,0,0,0-1.317-2.2,4.587,4.587,0,0,0-2.854-.439Z" transform="translate(118.044 99.656)" fill="#addec9"/>
      <path id="Path_138" data-name="Path 138" d="M145.583,162.364a29.447,29.447,0,0,1-41.494-1.756l-5.489,5.05A36.981,36.981,0,1,0,153.048,115.6l-5.489,5.05a29.912,29.912,0,0,1-1.976,41.714Z" transform="translate(117.874 138.197)" fill="#f9a723"/>
      <path id="Path_139" data-name="Path 139" d="M142.594,159.494A29.447,29.447,0,0,0,144.351,118L101.1,157.738a29.447,29.447,0,0,0,41.494,1.756Zm-5.489-32.713a6.046,6.046,0,0,1,9.66,2.415v.22a5.928,5.928,0,0,1-5.928,7.9l-14.71-.659,10.977-9.88Zm-10.977,12.734,14.71.659a6.123,6.123,0,0,1,5.269,8.562v.22a6.02,6.02,0,0,1-9.88,1.537Zm7.9,12.734a6.045,6.045,0,0,1-2.415,9.66h-.22a6.012,6.012,0,0,1-7.9-5.928l.659-14.71,9.88,10.977Zm-21.955,8.782a5.97,5.97,0,0,1-1.756-9.88l10.758-9.88-.659,14.71a5.787,5.787,0,0,1-8.343,5.05Z" transform="translate(120.862 141.066)" fill="#fff"/>
      <path id="Path_140" data-name="Path 140" d="M142.676,125.363a6,6,0,0,0-9.66-2.635l-10.758,9.88,14.71.659a5.807,5.807,0,0,0,5.708-7.9ZM141.8,144.9h0c1.756-3.952-.878-8.562-5.05-8.562l-14.71-.659,9.88,10.758A6.02,6.02,0,0,0,141.8,144.9Zm-14.49,13.173h0a6,6,0,0,0,2.635-9.66l-9.88-10.758-.659,14.71a5.889,5.889,0,0,0,7.9,5.708Zm-10.758-5.928.659-14.71-10.758,9.88a6.02,6.02,0,0,0,1.537,9.88h.22A5.893,5.893,0,0,0,116.55,152.148Z" transform="translate(124.952 144.899)" fill="#ffc552"/>
      <path id="Path_141" data-name="Path 141" d="M134.336,77.631a21.516,21.516,0,0,1,30.3-2.2l3.732-4.171a27.088,27.088,0,1,0-35.347,41.055l3.732-4.171C127.749,100.025,126.652,86.633,134.336,77.631Z" transform="translate(147.783 77.369)" fill="#f9a723"/>
      <path id="Path_143" data-name="Path 143" d="M128.925,95.173a4.485,4.485,0,0,0,7.245,1.1l7.026-8.123-10.758.878c-2.854,0-4.83,3.293-3.513,6.147ZM128.047,80.9a4.41,4.41,0,0,0,4.391,5.928l10.758-.878-8.123-7.026a4.354,4.354,0,0,0-7.025,1.976Zm9.441-10.977h0a4.485,4.485,0,0,0-1.1,7.245l8.123,7.026-.878-10.538A4.381,4.381,0,0,0,137.487,69.925Zm8.343,3.513.878,10.758,7.025-8.123a4.354,4.354,0,0,0-1.976-7.026h-.22a4.25,4.25,0,0,0-5.708,4.391Z" transform="translate(152.755 82.221)" fill="#ffc552"/>
      <path id="Path_144" data-name="Path 144" d="M105.2,117.838l-.659-1.317a4.308,4.308,0,0,0-1.976-1.976l-1.317-.659a9.825,9.825,0,0,1-3.513-15.807l.439-.439a16.145,16.145,0,0,1,18-3.513,15.866,15.866,0,0,1,8.343,8.123,16.384,16.384,0,0,1-2.854,18.222l-.439.439a9.518,9.518,0,0,1-6.586,2.854c-4.391,0-7.9-2.2-9.441-5.928Z" transform="translate(113.69 110.931)" fill="#b18977"/>
      <path id="Path_146" data-name="Path 146" d="M165.219,136.2l.878.878a2.384,2.384,0,0,0,1.976.878h1.317a8.061,8.061,0,0,1,7.026,5.269,7.331,7.331,0,0,1-.22,5.708l-.22.439a12.873,12.873,0,0,1-12.734,7.245,13.546,13.546,0,0,1-8.343-3.952" transform="translate(185.179 162.823)" fill="#b18977"/>
      <path id="Path_148" data-name="Path 148" d="M129.86,65.068h-1.317a2.306,2.306,0,0,0-1.976,1.1l-.878.878a7.531,7.531,0,0,1-8.343,2.2,7.443,7.443,0,0,1-4.391-3.732l-.22-.439a12.694,12.694,0,0,1,2.2-14.49,13.015,13.015,0,0,1,8.343-3.952,12.7,12.7,0,0,1,12.734,7.026l.22.439a7.416,7.416,0,0,1,.439,5.708A7.051,7.051,0,0,1,129.86,65.068Z" transform="translate(133.158 55.683)" fill="#b18977"/>
      <path id="Path_150" data-name="Path 150" d="M125.548,89.268,121.6,85.317a.667.667,0,0,1,.659-1.1l5.489,1.537a31.593,31.593,0,0,0,12.734,1.317,21.994,21.994,0,0,1,23.931,17.564l1.317,5.708-5.708,1.756a22.246,22.246,0,0,1-27-12.295,32.839,32.839,0,0,0-7.465-10.538Z" transform="translate(145.154 100.64)" fill="#06c167"/>
      <path id="Path_151" data-name="Path 151" d="M152.4,103.553,132.2,90.6l21.3,11.416a1.056,1.056,0,0,1,.439,1.317A1.024,1.024,0,0,1,152.4,103.553Z" transform="translate(158.042 108.31)" fill="#0f462d"/>
    </g>
  </g>
</svg>
