<svg width="109" height="36" viewBox="0 0 109 36" fill="none" xmlns="http://www.w3.org/2000/svg">
<path d="M3.02128 9.19149C3.02128 9.78724 3.11348 10.3333 3.29787 10.8298C3.48227 11.3121 3.73759 11.7305 4.06383 12.0851C4.39007 12.4255 4.77305 12.6879 5.21277 12.8723C5.66667 13.0567 6.15603 13.1489 6.68085 13.1489C7.19149 13.1489 7.66667 13.0567 8.10638 12.8723C8.56028 12.6738 8.95036 12.4043 9.2766 12.0638C9.61702 11.7092 9.87943 11.2908 10.0638 10.8085C10.2482 10.3262 10.3404 9.78724 10.3404 9.19149V0H12.5745V14.8936H10.3617V13.5106C9.86525 14.0355 9.2766 14.4397 8.59575 14.7234C7.92908 15.0071 7.20567 15.1489 6.42553 15.1489C5.63121 15.1489 4.88653 15.0142 4.19149 14.7447C3.51064 14.461 2.91489 14.0638 2.40426 13.5532C1.9078 13.0426 1.51064 12.4326 1.21277 11.7234C0.929078 11 0.787234 10.1986 0.787234 9.31915V0H3.02128V9.19149Z" fill="white"/>
<path d="M14.2389 0H16.3878V5.42553C16.8843 4.92908 17.4587 4.53901 18.1112 4.25532C18.7637 3.95745 19.4729 3.80851 20.2389 3.80851C21.0332 3.80851 21.7779 3.95745 22.4729 4.25532C23.1679 4.55319 23.7708 4.95745 24.2814 5.46808C24.7921 5.97872 25.1963 6.58156 25.4942 7.2766C25.7921 7.97163 25.941 8.70922 25.941 9.48936C25.941 10.2695 25.7921 11.0071 25.4942 11.7021C25.1963 12.383 24.7921 12.9787 24.2814 13.4894C23.7708 14 23.1679 14.4043 22.4729 14.7021C21.7779 15 21.0332 15.1489 20.2389 15.1489C19.4729 15.1489 18.7566 15.0071 18.0899 14.7234C17.4374 14.4255 16.863 14.0284 16.3665 13.5319V14.8936H14.2389V0ZM16.3452 9.48936C16.3452 10.0142 16.4374 10.5035 16.6218 10.9574C16.8204 11.4113 17.0899 11.8085 17.4304 12.1489C17.7708 12.4894 18.1679 12.7589 18.6218 12.9574C19.0757 13.156 19.5651 13.2553 20.0899 13.2553C20.6006 13.2553 21.0828 13.156 21.5367 12.9574C21.9906 12.7589 22.3807 12.4894 22.7069 12.1489C23.0474 11.8085 23.3169 11.4113 23.5155 10.9574C23.714 10.5035 23.8133 10.0142 23.8133 9.48936C23.8133 8.96454 23.714 8.47518 23.5155 8.02128C23.3169 7.55319 23.0474 7.14894 22.7069 6.80851C22.3807 6.46809 21.9906 6.20567 21.5367 6.02128C21.0828 5.8227 20.6006 5.7234 20.0899 5.7234C19.5793 5.7234 19.097 5.8227 18.6431 6.02128C18.1892 6.20567 17.7921 6.46809 17.4516 6.80851C17.1112 7.14894 16.8417 7.55319 16.6431 8.02128C16.4445 8.47518 16.3452 8.96454 16.3452 9.48936Z" fill="white"/>
<path d="M26.6837 9.46809C26.6837 8.70213 26.8255 7.97872 27.1092 7.29787C27.3929 6.61702 27.783 6.02128 28.2794 5.51064C28.7759 4.98582 29.3645 4.57447 30.0454 4.2766C30.7262 3.97872 31.4638 3.82979 32.2581 3.82979C33.0383 3.82979 33.7617 3.97163 34.4284 4.25532C35.095 4.53901 35.6695 4.93617 36.1518 5.44681C36.634 5.94326 37.0099 6.53901 37.2794 7.23404C37.5489 7.9149 37.6837 8.65957 37.6837 9.46809V10.1702H28.8539C28.9248 10.6099 29.0667 11.0213 29.2794 11.4043C29.4922 11.773 29.7546 12.0993 30.0667 12.383C30.3929 12.6525 30.7546 12.8652 31.1518 13.0213C31.5631 13.1773 31.9957 13.2553 32.4496 13.2553C33.7404 13.2553 34.783 12.7234 35.5773 11.6596L37.1305 12.8085C36.5915 13.5319 35.9248 14.0993 35.1305 14.5106C34.3362 14.922 33.4425 15.1277 32.4496 15.1277C31.6411 15.1277 30.8823 14.9858 30.173 14.7021C29.478 14.4184 28.8681 14.0213 28.3433 13.5106C27.8326 13 27.4284 12.4043 27.1305 11.7234C26.8326 11.0284 26.6837 10.2766 26.6837 9.46809ZM32.2156 5.70213C31.4071 5.70213 30.6979 5.95745 30.0879 6.46809C29.4922 6.96454 29.095 7.63121 28.8964 8.46809H35.5135C35.3291 7.63121 34.9319 6.96454 34.322 6.46809C33.7262 5.95745 33.0241 5.70213 32.2156 5.70213Z" fill="white"/>
<path d="M43.4102 5.95745C42.701 5.95745 42.1195 6.20567 41.6656 6.70213C41.2117 7.19858 40.9847 7.87234 40.9847 8.7234V14.8936H38.8358V4.04255H40.9634V5.38298C41.2329 4.94326 41.5805 4.59575 42.006 4.34043C42.4457 4.08511 42.9634 3.95745 43.5592 3.95745H44.3039V5.95745H43.4102Z" fill="white"/>
<path d="M0 24.9149H2.08511V22.8298C2.08511 22.0922 2.30496 21.4894 2.74468 21.0213C3.19858 20.539 3.85106 20.2979 4.70213 20.2979H6.53192V22.1915H5.06383C4.80851 22.1915 4.60284 22.2695 4.44681 22.4255C4.30496 22.5674 4.23404 22.7872 4.23404 23.0851V24.9149H6.53192V26.7872H4.23404V35.7447H2.08511V26.7872H0V24.9149Z" fill="white"/>
<path d="M18.3531 30.3191C18.3531 31.0993 18.197 31.8369 17.885 32.5319C17.5871 33.2128 17.1758 33.8156 16.6509 34.3404C16.1261 34.8511 15.5091 35.2553 14.7999 35.5532C14.0906 35.8511 13.3318 36 12.5233 36C11.7148 36 10.9559 35.8511 10.2467 35.5532C9.53746 35.2553 8.92043 34.8511 8.39561 34.3404C7.87079 33.8156 7.45235 33.2128 7.14029 32.5319C6.84242 31.8369 6.69348 31.0993 6.69348 30.3191C6.69348 29.539 6.84242 28.8085 7.14029 28.1277C7.45235 27.4326 7.87079 26.8298 8.39561 26.3191C8.92043 25.8085 9.53746 25.4043 10.2467 25.1064C10.9559 24.8085 11.7148 24.6596 12.5233 24.6596C13.3318 24.6596 14.0906 24.8085 14.7999 25.1064C15.5091 25.4043 16.1261 25.8085 16.6509 26.3191C17.1758 26.8298 17.5871 27.4326 17.885 28.1277C18.197 28.8085 18.3531 29.539 18.3531 30.3191ZM16.2041 30.3191C16.2041 29.7943 16.1048 29.305 15.9062 28.8511C15.7219 28.3972 15.4594 28 15.119 27.6596C14.7928 27.3191 14.4027 27.0567 13.9488 26.8723C13.5091 26.6738 13.0339 26.5745 12.5233 26.5745C12.0126 26.5745 11.5304 26.6738 11.0765 26.8723C10.6367 27.0567 10.2467 27.3191 9.90625 27.6596C9.58001 28 9.3176 28.3972 9.11902 28.8511C8.93462 29.305 8.84242 29.7943 8.84242 30.3191C8.84242 30.844 8.93462 31.3404 9.11902 31.8085C9.3176 32.2624 9.58001 32.6596 9.90625 33C10.2467 33.3404 10.6367 33.6099 11.0765 33.8085C11.5304 33.9929 12.0126 34.0851 12.5233 34.0851C13.0339 34.0851 13.5091 33.9929 13.9488 33.8085C14.4027 33.6099 14.7928 33.3404 15.119 33C15.4594 32.6596 15.7219 32.2624 15.9062 31.8085C16.1048 31.3404 16.2041 30.844 16.2041 30.3191Z" fill="white"/>
<path d="M24.3615 26.8085C23.6523 26.8085 23.0708 27.0567 22.6169 27.5532C22.163 28.0496 21.936 28.7234 21.936 29.5745V35.7447H19.7871V24.8936H21.9147V26.234C22.1842 25.7943 22.5317 25.4468 22.9573 25.1915C23.397 24.9362 23.9147 24.8085 24.5105 24.8085H25.2552V26.8085H24.3615Z" fill="white"/>
<path d="M30.5193 20.8511H35.9661C36.576 20.8511 37.1434 20.9574 37.6682 21.1702C38.2072 21.3688 38.6682 21.6454 39.0512 22C39.4484 22.3404 39.7533 22.7518 39.9661 23.234C40.193 23.7021 40.3065 24.2057 40.3065 24.7447C40.3065 25.383 40.1363 25.9716 39.7959 26.5106C39.4696 27.0355 39.0299 27.461 38.4767 27.7872C39.3278 28.0709 40.0086 28.5532 40.5193 29.234C41.0441 29.9007 41.3065 30.6667 41.3065 31.5319C41.3065 32.1135 41.193 32.6596 40.9661 33.1702C40.7391 33.6809 40.42 34.1277 40.0086 34.5106C39.6115 34.8936 39.1363 35.1986 38.5831 35.4255C38.0441 35.6383 37.4555 35.7447 36.8172 35.7447H30.5193V20.8511ZM32.7533 22.7447V27.1064H35.7959C36.1221 27.1064 36.42 27.0496 36.6895 26.9362C36.9732 26.8227 37.2143 26.6667 37.4129 26.4681C37.6115 26.2695 37.7675 26.0426 37.881 25.7872C37.9945 25.5177 38.0512 25.234 38.0512 24.9362C38.0512 24.3121 37.8384 23.7943 37.4129 23.383C37.0016 22.9574 36.4625 22.7447 35.7959 22.7447H32.7533ZM36.5193 33.8511C37.2711 33.8511 37.881 33.617 38.3491 33.1489C38.8172 32.6667 39.0512 32.078 39.0512 31.383C39.0512 31.0426 38.9874 30.7305 38.8597 30.4468C38.732 30.1489 38.5547 29.8936 38.3278 29.6809C38.115 29.4539 37.8526 29.2766 37.5406 29.1489C37.2285 29.0213 36.8881 28.9574 36.5193 28.9574H32.7533V33.8511H36.5193Z" fill="white"/>
<path d="M42.7703 24.8936H44.9192V31.4255C44.9192 31.8085 44.976 32.1631 45.0894 32.4894C45.2171 32.8014 45.3944 33.078 45.6213 33.3191C45.8483 33.5461 46.1178 33.7305 46.4299 33.8723C46.7419 34 47.0894 34.0638 47.4724 34.0638C48.2525 34.0638 48.8908 33.8156 49.3873 33.3191C49.8838 32.8085 50.132 32.1489 50.132 31.3404V24.8936H52.2809V35.7447H50.132V34.5319C49.7632 34.9858 49.3022 35.3404 48.749 35.5957C48.1958 35.8369 47.593 35.9574 46.9405 35.9574C46.3164 35.9574 45.749 35.8511 45.2384 35.6383C44.7277 35.4255 44.288 35.1348 43.9192 34.766C43.5504 34.3972 43.2667 33.9645 43.0682 33.4681C42.8696 32.9574 42.7703 32.4114 42.7703 31.8298V24.8936Z" fill="white"/>
<path d="M58.1941 35.9787C57.5275 35.9787 56.9246 35.8865 56.3856 35.7021C55.8466 35.5177 55.3715 35.2695 54.9601 34.9574C54.5629 34.6312 54.2367 34.2482 53.9814 33.8085C53.7261 33.3688 53.5488 32.8936 53.4495 32.383H55.5133C55.641 33.0071 55.9459 33.4752 56.4282 33.7872C56.9105 34.0993 57.492 34.2553 58.1729 34.2553C58.7686 34.2553 59.2296 34.1277 59.5559 33.8723C59.8963 33.617 60.0665 33.2837 60.0665 32.8723C60.0665 32.2057 59.57 31.7376 58.5771 31.4681L56.5771 30.9787C54.6197 30.4823 53.641 29.461 53.641 27.9149C53.641 27.4184 53.7332 26.9716 53.9176 26.5745C54.1161 26.1773 54.3785 25.8369 54.7048 25.5532C55.0452 25.2695 55.4424 25.0496 55.8963 24.8936C56.3644 24.7376 56.875 24.6596 57.4282 24.6596C58.0665 24.6596 58.641 24.7518 59.1516 24.9362C59.6764 25.1206 60.1303 25.3759 60.5133 25.7021C60.8963 26.0142 61.2083 26.3901 61.4495 26.8298C61.6906 27.2695 61.8466 27.7447 61.9175 28.2553H59.8537C59.7261 27.6312 59.4211 27.1631 58.9388 26.8511C58.4707 26.539 57.9601 26.383 57.4069 26.383C56.8821 26.383 56.4707 26.5106 56.1729 26.766C55.8892 27.0071 55.7473 27.3191 55.7473 27.7021C55.7473 28.383 56.2651 28.8511 57.3005 29.1064L59.1729 29.5957C61.1729 30.1064 62.1729 31.1418 62.1729 32.7021C62.1729 33.1702 62.0807 33.6028 61.8963 34C61.7119 34.3972 61.4424 34.7447 61.0878 35.0425C60.7473 35.3404 60.3289 35.5745 59.8324 35.7447C59.3502 35.9007 58.8041 35.9787 58.1941 35.9787Z" fill="white"/>
<path d="M64.4967 23.383C64.1279 23.383 63.8158 23.2624 63.5605 23.0213C63.3194 22.766 63.1988 22.4539 63.1988 22.0851C63.1988 21.7305 63.3194 21.4326 63.5605 21.1915C63.8158 20.9362 64.1279 20.8085 64.4967 20.8085C64.8513 20.8085 65.1492 20.9362 65.3903 21.1915C65.6314 21.4326 65.752 21.7305 65.752 22.0851C65.752 22.4539 65.6314 22.766 65.3903 23.0213C65.1492 23.2624 64.8513 23.383 64.4967 23.383ZM65.5605 35.7447H63.4116V24.8936H65.5605V35.7447Z" fill="white"/>
<path d="M76.9056 35.7447H74.7566V29.234C74.7566 28.4397 74.5226 27.8014 74.0545 27.3191C73.5864 26.8369 72.9694 26.5957 72.2035 26.5957C71.4233 26.5957 70.785 26.844 70.2886 27.3404C69.7921 27.8369 69.5439 28.4894 69.5439 29.2979V35.7447H67.3949V24.8936H69.5439V26.0851C69.9269 25.6312 70.3878 25.2837 70.9269 25.0426C71.48 24.7872 72.0829 24.6596 72.7354 24.6596C73.3595 24.6596 73.9269 24.766 74.4375 24.9787C74.9481 25.1915 75.3879 25.4894 75.7566 25.8723C76.1254 26.2411 76.4091 26.6809 76.6077 27.1915C76.8063 27.6879 76.9056 28.2269 76.9056 28.8085V35.7447Z" fill="white"/>
<path d="M78.3295 30.3191C78.3295 29.5532 78.4713 28.8298 78.755 28.1489C79.0387 27.4681 79.4287 26.8723 79.9252 26.3617C80.4217 25.8369 81.0103 25.4255 81.6912 25.1277C82.372 24.8298 83.1096 24.6809 83.9039 24.6809C84.6841 24.6809 85.4075 24.8227 86.0741 25.1064C86.7408 25.3901 87.3153 25.7872 87.7975 26.2979C88.2798 26.7943 88.6557 27.3901 88.9252 28.0851C89.1947 28.766 89.3295 29.5106 89.3295 30.3191V31.0213H80.4997C80.5706 31.461 80.7124 31.8723 80.9252 32.2553C81.138 32.6241 81.4004 32.9504 81.7124 33.234C82.0387 33.5035 82.4004 33.7163 82.7975 33.8723C83.2089 34.0284 83.6415 34.1064 84.0954 34.1064C85.3862 34.1064 86.4287 33.5745 87.2231 32.5106L88.7763 33.6596C88.2373 34.383 87.5706 34.9504 86.7763 35.3617C85.9819 35.773 85.0883 35.9787 84.0954 35.9787C83.2869 35.9787 82.528 35.8369 81.8188 35.5532C81.1238 35.2695 80.5138 34.8723 79.989 34.3617C79.4784 33.8511 79.0741 33.2553 78.7763 32.5745C78.4784 31.8794 78.3295 31.1277 78.3295 30.3191ZM83.8614 26.5532C83.0529 26.5532 82.3436 26.8085 81.7337 27.3191C81.138 27.8156 80.7408 28.4823 80.5422 29.3191H87.1592C86.9748 28.4823 86.5777 27.8156 85.9678 27.3191C85.372 26.8085 84.6699 26.5532 83.8614 26.5532Z" fill="white"/>
<path d="M94.8433 35.9787C94.1766 35.9787 93.5737 35.8865 93.0347 35.7021C92.4957 35.5177 92.0206 35.2695 91.6092 34.9574C91.212 34.6312 90.8858 34.2482 90.6305 33.8085C90.3752 33.3688 90.1979 32.8936 90.0986 32.383H92.1624C92.2901 33.0071 92.595 33.4752 93.0773 33.7872C93.5596 34.0993 94.1411 34.2553 94.822 34.2553C95.4177 34.2553 95.8787 34.1277 96.2049 33.8723C96.5454 33.617 96.7156 33.2837 96.7156 32.8723C96.7156 32.2057 96.2191 31.7376 95.2262 31.4681L93.2262 30.9787C91.2688 30.4823 90.2901 29.461 90.2901 27.9149C90.2901 27.4184 90.3823 26.9716 90.5667 26.5745C90.7652 26.1773 91.0276 25.8369 91.3539 25.5532C91.6943 25.2695 92.0915 25.0496 92.5454 24.8936C93.0135 24.7376 93.5241 24.6596 94.0773 24.6596C94.7156 24.6596 95.2901 24.7518 95.8007 24.9362C96.3255 25.1206 96.7794 25.3759 97.1624 25.7021C97.5454 26.0142 97.8574 26.3901 98.0986 26.8298C98.3397 27.2695 98.4957 27.7447 98.5667 28.2553H96.5028C96.3752 27.6312 96.0702 27.1631 95.5879 26.8511C95.1199 26.539 94.6092 26.383 94.056 26.383C93.5312 26.383 93.1198 26.5106 92.822 26.766C92.5383 27.0071 92.3964 27.3191 92.3964 27.7021C92.3964 28.383 92.9142 28.8511 93.9496 29.1064L95.822 29.5957C97.822 30.1064 98.822 31.1418 98.822 32.7021C98.822 33.1702 98.7298 33.6028 98.5454 34C98.361 34.3972 98.0915 34.7447 97.7369 35.0425C97.3964 35.3404 96.978 35.5745 96.4815 35.7447C95.9993 35.9007 95.4532 35.9787 94.8433 35.9787Z" fill="white"/>
<path d="M104.291 35.9787C103.625 35.9787 103.022 35.8865 102.483 35.7021C101.944 35.5177 101.469 35.2695 101.057 34.9574C100.66 34.6312 100.334 34.2482 100.078 33.8085C99.8231 33.3688 99.6458 32.8936 99.5465 32.383H101.61C101.738 33.0071 102.043 33.4752 102.525 33.7872C103.008 34.0993 103.589 34.2553 104.27 34.2553C104.866 34.2553 105.327 34.1277 105.653 33.8723C105.993 33.617 106.164 33.2837 106.164 32.8723C106.164 32.2057 105.667 31.7376 104.674 31.4681L102.674 30.9787C100.717 30.4823 99.738 29.461 99.738 27.9149C99.738 27.4184 99.8302 26.9716 100.015 26.5745C100.213 26.1773 100.476 25.8369 100.802 25.5532C101.142 25.2695 101.539 25.0496 101.993 24.8936C102.461 24.7376 102.972 24.6596 103.525 24.6596C104.164 24.6596 104.738 24.7518 105.249 24.9362C105.773 25.1206 106.227 25.3759 106.61 25.7021C106.993 26.0142 107.305 26.3901 107.547 26.8298C107.788 27.2695 107.944 27.7447 108.015 28.2553H105.951C105.823 27.6312 105.518 27.1631 105.036 26.8511C104.568 26.539 104.057 26.383 103.504 26.383C102.979 26.383 102.568 26.5106 102.27 26.766C101.986 27.0071 101.844 27.3191 101.844 27.7021C101.844 28.383 102.362 28.8511 103.398 29.1064L105.27 29.5957C107.27 30.1064 108.27 31.1418 108.27 32.7021C108.27 33.1702 108.178 33.6028 107.993 34C107.809 34.3972 107.539 34.7447 107.185 35.0425C106.844 35.3404 106.426 35.5745 105.93 35.7447C105.447 35.9007 104.901 35.9787 104.291 35.9787Z" fill="white"/>
</svg>
