<svg id="bezorg" xmlns="http://www.w3.org/2000/svg" width="902.34" height="505.056" viewBox="0 0 902.34 505.056">
  <path id="Path_152" data-name="Path 152" d="M0,0H902.121V504.836H0Z" fill="#ffefed"/>
  <path id="Path_153" data-name="Path 153" d="M293.1,114.8h44.338V271.519H293.1Z" transform="translate(350.237 137.179)" fill="#ffe1d6"/>
  <path id="Path_154" data-name="Path 154" d="M315.656,328.648H293.048v-181.3h22.608Z" transform="translate(350.175 176.07)" fill="#f9cbc7"/>
  <path id="Path_155" data-name="Path 155" d="M325.5,147.4h43.9V328.7H325.5Z" transform="translate(388.953 176.134)" fill="#fffaf0"/>
  <path id="Path_156" data-name="Path 156" d="M128.017,303.13H77.094V168.8h50.923Z" transform="translate(92.123 201.706)" fill="#f9cbc7"/>
  <path id="Path_157" data-name="Path 157" d="M422.588,405.065h-52.02V83.506h52.02Z" transform="translate(442.807 99.785)" fill="#ffe1d6"/>
  <path id="Path_158" data-name="Path 158" d="M491.761,145.2V374.349h55.093V109.2l-42.582,27.656ZM223.1,374.349H347.992V179.658h-43.46v-.22H223.1Z" transform="translate(266.591 130.488)" fill="#ffe1d6"/>
  <path id="Path_159" data-name="Path 159" d="M357.068,282.284H165.45V186.146H357.068Z" transform="translate(197.703 222.433)" fill="#f9cbc7"/>
  <path id="Path_160" data-name="Path 160" d="M303.4,129.956h15.584L303.4,102.3Z" transform="translate(362.545 122.242)" fill="#ffe1d6"/>
  <path id="Path_161" data-name="Path 161" d="M403.928,152.541H388.344l15.584-27.656Zm199.52-23.266L577.328,83.4h-25.9V405.178h52.02Zm-156.719,275.9h55.093V334.721l-55.093-25.9Zm-178.51-.105H219.272V211.04h48.947ZM403.814,234.7H381.206V152.606h22.608Z" transform="translate(262.017 99.658)" fill="#f9cbc7"/>
  <path id="Path_162" data-name="Path 162" d="M382.844,141.033H360.236v-5.707h22.608Zm0,10.356H360.236v-5.707h22.608Z" transform="translate(430.461 161.707)" fill="#ffe1d6"/>
  <path id="Path_163" data-name="Path 163" d="M216.276,197.681h-5.707v-5.707h5.707Zm8.4,10.119h-5.707v-5.707h5.707Zm-17.437,0H201.53v-5.707h5.707Z" transform="translate(240.816 229.398)" fill="#ffefed"/>
  <path id="Path_164" data-name="Path 164" d="M332.865,159.026h-4.829v-17.56h4.829Zm-8.762,0h-4.829v-17.56H324.1Z" transform="translate(381.513 169.043)" fill="#f9cbc7"/>
  <path id="Path_165" data-name="Path 165" d="M308.754,187.051V316.992H280V157.2Z" transform="translate(334.583 187.845)" fill="#ffe1d6"/>
  <path id="Path_166" data-name="Path 166" d="M223.5,186.2H333.247v96.138H223.5Z" transform="translate(267.069 222.498)" fill="#f9cbc7"/>
  <path id="Path_167" data-name="Path 167" d="M223.5,186H358.05v10.975H223.5Z" transform="translate(267.069 222.259)" fill="#f9cbc7"/>
  <path id="Path_168" data-name="Path 168" d="M122.83,386.617H53.25V98.86h69.58Z" transform="translate(63.631 118.132)" fill="#ffe1d6"/>
  <path id="Path_169" data-name="Path 169" d="M96.544,346.727H18.624V163.669h77.92ZM129.416,88.8a18.407,18.407,0,0,1,18.438,18.437H110.978A18.549,18.549,0,0,1,129.416,88.8Z" transform="translate(22.255 106.111)" fill="#ffe1d6"/>
  <path id="Path_170" data-name="Path 170" d="M97.767,104.218H60.672V97.194H97.767Z" transform="translate(72.499 116.141)" fill="#ffe1d6"/>
  <path id="Path_171" data-name="Path 171" d="M29.347,146.311H23.64V140.6h5.707ZM40.98,134.687H35.273V128.98H40.98Zm11.563,11.624H46.836V140.6h5.707Zm11.563-11.624H58.4V128.98h5.707Zm0,11.624H58.4V140.6h5.707ZM29.347,158.1H23.64v-5.707h5.707Zm11.633,0H35.273v-5.707H40.98Zm11.563,0H46.836v-5.707h5.707Z" transform="translate(28.248 154.123)" fill="#ffefed"/>
  <path id="Path_172" data-name="Path 172" d="M335.143,171.513h-5.707v-5.707h5.707Zm11.629-11.62h-5.707v-5.707h5.707Zm0,23.192h-5.707v-5.707h5.707Zm11.559,0h-5.707v-5.707h5.707Z" transform="translate(393.656 184.243)" fill="#ffe1d6"/>
  <path id="Path_173" data-name="Path 173" d="M170.632,346.252H112.686V132.684h57.946Z" transform="translate(134.653 158.549)" fill="#fffaf0"/>
  <path id="Path_174" data-name="Path 174" d="M100.2,132.6h27.217v79.9H100.2Zm0,86.92h27.217v7.024H100.2Zm0,13.609h27.217V346.168H100.2Z" transform="translate(119.733 158.449)" fill="#ffe1d6"/>
  <path id="Path_175" data-name="Path 175" d="M100.2,169.1h27.217v6.8H100.2Z" transform="translate(119.733 202.064)" fill="#f9cbc7"/>
  <path id="Path_176" data-name="Path 176" d="M112.6,169.1h57.946v6.8H112.6Z" transform="translate(134.55 202.064)" fill="#ffe1d6"/>
  <path id="Path_177" data-name="Path 177" d="M100.2,175.4h27.217v6.8H100.2Z" transform="translate(119.733 209.593)" fill="#f9cbc7"/>
  <path id="Path_178" data-name="Path 178" d="M112.6,175.4h57.946v6.8H112.6Z" transform="translate(134.55 209.593)" fill="#ffe1d6"/>
  <path id="Path_181" data-name="Path 181" d="M113,258.814H61.42v-52.9H113Z" transform="translate(73.393 246.057)" fill="#fffaf0"/>
  <path id="Path_182" data-name="Path 182" d="M78.323,271.747H47.374V194.924H78.323Z" transform="translate(56.609 232.923)" fill="#ffe1d6"/>
  <path id="Path_183" data-name="Path 183" d="M47.5,195l30.51,24.144h51.581L99.3,195Z" transform="translate(56.76 233.013)" fill="#ffefed"/>
  <path id="Path_184" data-name="Path 184" d="M283.331,158.645H270.6V133.184h12.731Z" transform="translate(323.351 159.147)" fill="#ffe1d6"/>
  <path id="Path_185" data-name="Path 185" d="M163.3,297.534a9.368,9.368,0,0,1,9.438,9.438v21.949H154.085V306.972A9.323,9.323,0,0,1,163.3,297.534Zm43.021-4.609H286V328.7H206.324ZM0,215H40.826V328.483H0ZM41.045,199.64A41.124,41.124,0,0,0,0,158.594V199.64ZM0,199.64H41.045V215H0Zm847.467-31.827H902.34V328.044H847.467Zm-89.115,91.749h88.9v68.263h-88.9ZM665.945,147.4h48.508V328.044H665.945Z" transform="translate(0 176.134)" fill="#f9cbc7"/>
  <path id="Path_186" data-name="Path 186" d="M273.5,208.9H431.536v45.655H273.5Z" transform="translate(326.816 249.623)" fill="#f9cbc7"/>
  <circle id="Ellipse_18" data-name="Ellipse 18" cx="24.803" cy="24.803" r="24.803" transform="translate(108.43 76.164)" fill="#fff"/>
  <path id="Path_187" data-name="Path 187" d="M243.7,269.892a186.062,186.062,0,0,0,54.874-31.168c4.829-3.951,9.438-8.121,15.365-10.316,5.268-1.975,11.414-1.756,15.8,1.536a10.089,10.089,0,0,1,3.731,5.707c.439,1.975-.439,4.609.658,6.146,5.707-3.073,11.633-8.341,16.9-12.292A226.945,226.945,0,0,1,371.885,215.9a171.867,171.867,0,0,1,44.777-17.779c6.8-1.536,17.779-3.512,22.388,3.292,6.8,10.1-12.072,23.486-18.657,28.754a275.211,275.211,0,0,1-24.583,17.34c12.072-7.463,25.022-15.365,38.411-20.632,13.17-5.268,27.656-8.56,41.7-7.682,4.39.22,9.658,1.317,11.853,5.268,2.414,4.17.659,9.219-1.756,13.389-5.268,9-12.95,16.243-20.632,23.486a38.365,38.365,0,0,1-16.023,8.78H243.7Z" transform="translate(291.207 234.944)" fill="#fff"/>
  <g id="vrouw">
    <path id="Path_188" data-name="Path 188" d="M233.5,223.283l2.195-.439A43.114,43.114,0,0,0,267.3,192.992v-.22L237.67,189.7Z" transform="translate(279.019 226.68)" fill="#231f20"/>
    <path id="Path_189" data-name="Path 189" d="M231.7,210.315l24.364,25.461,13.389-19.1L246.187,191Z" transform="translate(276.868 228.234)" fill="#fa9269"/>
    <path id="Path_190" data-name="Path 190" d="M252.23,216.189l4.17-4.39a4.05,4.05,0,0,1,2.634-1.1h6.146l5.487-7.9h.219a14.974,14.974,0,0,1,11.414,5.048l7.9,8.56-31.168,39.948-28.534,1.1.439-7.243a10.193,10.193,0,0,1,6.365-6.365l5.707-1.975a9.227,9.227,0,0,0,6.146-9l-.219-9.438a13.793,13.793,0,0,1,3.292-7.243Z" transform="translate(275.434 242.334)" fill="#993f21"/>
    <path id="Path_191" data-name="Path 191" d="M230.7,250.065v5.048h32.485l30.071-40.606a2.474,2.474,0,0,0-.439-3.512L290.4,208.8l-31.168,39.948Z" transform="translate(275.673 249.504)" fill="#231f20"/>
    <path id="Path_192" data-name="Path 192" d="M189.7,179.064l34.022,54.215a44.873,44.873,0,0,0,5.487,7.243l56.629,55.751,3.951-9.219a33.9,33.9,0,0,1,23.925-19.974l6.146-1.317L256.865,216.6a27.655,27.655,0,0,1-9.438-12.95L219.551,128.8,189.7,179.064Z" transform="translate(226.68 153.908)" fill="#757575"/>
    <path id="Path_193" data-name="Path 193" d="M149.3,219.532l9.438,5.048a43.484,43.484,0,0,0,41.484-.658l-4.39-25.022Z" transform="translate(178.405 237.674)" fill="#231f20"/>
    <path id="Path_194" data-name="Path 194" d="M162.6,203.736l-16.9,35.558,25.022,9.438L190.916,202.2Z" transform="translate(174.103 241.617)" fill="#fa9269"/>
    <path id="Path_195" data-name="Path 195" d="M172.45,215.794l8.121,3.073a5.573,5.573,0,0,1,3.073,2.853l2.634,5.926h11.633a16.338,16.338,0,0,1,4.39,11.194v3.292H124.6v-1.756a14.138,14.138,0,0,1,11.414-10.316l29.193-8.121,4.39-5.268a2.578,2.578,0,0,1,2.853-.878Z" transform="translate(148.89 257.655)" fill="#993f21"/>
    <path id="Path_196" data-name="Path 196" d="M124.7,227.7h77.7v5.048H124.7Z" transform="translate(149.009 272.088)" fill="#231f20"/>
    <path id="Path_197" data-name="Path 197" d="M223.193,115.019,186.537,220.376c-1.317,3.731-2.414,7.463-3.731,11.194-3.073,8.78-5.926,17.779-9,26.559-3.512,10.755-7.243,21.51-10.755,32.046l-9.219,27.656c-1.1,3.073-1.975,5.926-3.073,9-.22.439-1.756,3.731-1.317,4.17-.22-.878,11.853.878,12.731.878,3.731,0,7.243-1.536,10.536-3.292a19.554,19.554,0,0,1,8.56-1.975c4.829,0,10.536,2.414,14.267,5.268l4.609,3.512,25.461-98.333a44.175,44.175,0,0,1,5.048-11.414l43.021-64.97a49.821,49.821,0,0,0,7.9-27.217,51.888,51.888,0,0,0-3.731-19.1l-3.512-8.56Z" transform="translate(178.481 126.425)" fill="#afafaf"/>
    <path id="Path_201" data-name="Path 201" d="M211.653,109.179l3.951,12.731,10.755,9.438,8.121.439-4.609-13.828L217.14,105.447Zm-60.361-17.34h-1.536A2.36,2.36,0,0,0,148,89.863h-.22l-2.634-.219V88.327a2.382,2.382,0,0,0-1.756-1.756h-3.073l-9.438-9.219a1.061,1.061,0,0,1,0-1.536l1.536-1.536c.439-.439,1.1-.439,1.317,0l17.56,17.56Z" transform="translate(155.999 88.366)"/>
    <path id="Path_202" data-name="Path 202" d="M132.235,78.119a.472.472,0,0,0-.439.439,2,2,0,0,0,.658,2.414c2.195,2.195,3.951,4.829,6.146,7.243l3.292-3.512-6.585-6.146-.658-.439a1.32,1.32,0,0,0-.878-.219,3.254,3.254,0,0,0-1.536.219Z" transform="translate(157.277 93.086)" fill="#fa9269"/>
    <path id="Path_203" data-name="Path 203" d="M215.68,100.2l-11.633,16.023A4.1,4.1,0,0,1,199,117.536l-12.292-5.487a63.129,63.129,0,0,1-14.267-8.56l-11.194-8.56-.22-.878a22.92,22.92,0,0,0-12.511-13.828l-6.365-3.073a.421.421,0,0,0-.658.219,3.26,3.26,0,0,0,.878,3.073l6.365,5.048a1.987,1.987,0,0,1,.658,2.195,2.144,2.144,0,0,1-2.634,1.536h-.22a2.328,2.328,0,0,0-1.975-1.975l-2.634-.219v-.878a2.256,2.256,0,0,0-2.414-2.195h-2.634c-.22,0-.659.219-.659.439l-2.634,3.731a.98.98,0,0,0,0,1.1l.22.219A4.8,4.8,0,0,0,136,91.417l.439.219a2.6,2.6,0,0,0,.22,2.195,2.238,2.238,0,0,0,1.756,1.1l.878.219a4.6,4.6,0,0,0,1.756,4.17l4.17,3.292a22.115,22.115,0,0,0,5.048,2.634L156.637,107a1.664,1.664,0,0,1,.878.439l12.731,13.828a68.16,68.16,0,0,0,24.144,16.682l7.682,3.073a6.738,6.738,0,0,0,7.243-1.1l20.632-17.34L215.68,100.2Z" transform="translate(159.435 92.08)" fill="#fa9269"/>
    <path id="Path_204" data-name="Path 204" d="M151.612,91.78a2.784,2.784,0,0,1-1.317.219l-1.317,1.1a5.242,5.242,0,0,0-.439-1.975c-.439-.658.22-1.1-.439-1.1l-2.634-.219v-.878a2.256,2.256,0,0,0-2.414-2.195h-2.634l-9.438-9c-.439-.439-.439-1.1,0-1.317l1.536-1.536c.439-.439,1.1-.439,1.317,0Z" transform="translate(156.119 89.083)"/>
    <path id="Path_206" data-name="Path 206" d="M144.538,85.268v-.658c-.22-.658-1.1-1.1-1.756-1.317l-2.634-.219v-.878A2.256,2.256,0,0,0,137.734,80H135.1l7.463,7.024s.658-.219.658-.439c.22-.219.439-.439.659-.439C144.319,86.146,144.538,85.707,144.538,85.268Z" transform="translate(161.436 95.595)" fill="#fa9269"/>
    <path id="Path_207" data-name="Path 207" d="M145.138,86.968v-.658c-.22-.658-1.1-1.1-1.756-1.317l-2.634-.219v-.878a2.256,2.256,0,0,0-2.414-2.195H135.7l7.463,7.024s.658-.219.658-.439c.22-.219.439-.439.658-.439C144.7,87.626,145.138,87.407,145.138,86.968Z" transform="translate(162.153 97.627)" fill="#fa9269"/>
    <path id="Path_208" data-name="Path 208" d="M167.5,103.981a41.558,41.558,0,0,1,17.779,14.706l5.268,7.682,20.193-23.486L181.987,78.3,167.5,103.981Z" transform="translate(200.153 93.564)" fill="#453473"/>
    <path id="Path_212" data-name="Path 212" d="M191.1,56.511c2.414-1.756,5.048-3.512,7.463-5.487a17.236,17.236,0,0,1,20.193-2.195L226,53c17.121,10.1,34.68,7.024,46.533-8.78l14.706-19.535a16.221,16.221,0,0,1,13.17-6.585h1.536a3.467,3.467,0,0,1,3.512,3.512v43.46a1.2,1.2,0,0,1-1.756,1.1l-3.951-1.536a9.359,9.359,0,0,0-10.755,3.073L276.483,80.217a30.142,30.142,0,0,1-48.289.658C223.146,74.29,216.561,65.73,208.221,63.1c-5.048-1.536-7.243.219-12.072,1.317-4.39.878-3.512-3.292-5.048-7.9Z" transform="translate(228.353 21.628)" fill="#33150b"/>
    <path id="Path_213" data-name="Path 213" d="M173.4,124.641a30.759,30.759,0,0,0,2.195,8.56s4.609,10.755,4.609,10.975c2.853,6.8-2.634,39.509,13.389,37.095,0,0,20.632-3.073,23.705-3.731l29.412-6.585a2.607,2.607,0,0,0,2.195-2.634c0-4.829,0-8.121-1.536-12.731-1.536-4.39-3.512-8.78-3.512-13.609.22-5.707,1.975-12.072.878-17.56l-10.1-52.24-19.315-7.9-5.487-8.78L183.06,71.962l3.512,8.56s-3.512,7.682-6.8,14.926c-5.487,12.95-7.682,17.56-6.365,29.193Z" transform="translate(206.761 66.319)" fill="#7356bf"/>
    <path id="Path_214" data-name="Path 214" d="M221.332,118.918a10.685,10.685,0,0,0,.22,2.634l-1.317.439c-15.584-4.39-18.657-15.145-20.632-20.413L191.7,74.8l27.876,12.731c1.536,8.121,2.853,14.267,2.853,14.267C223.307,107.066,221.551,113.431,221.332,118.918Z" transform="translate(229.07 89.382)" fill="#453473"/>
    <path id="Path_200" data-name="Path 200" d="M178.75,37.42l-3.073,4.609a15.155,15.155,0,0,0-2.414,11.853L173.7,56.3a2.239,2.239,0,0,1-.439,1.975l-4.39,6.8a1.606,1.606,0,0,0,.658,2.414l3.073,1.317c.22,0,.22.219.22.439v.219A2.371,2.371,0,0,1,172.165,71l-.22.219a1.976,1.976,0,0,0-.22,2.195,2.321,2.321,0,0,0,1.536,1.317h.439l-.658.658a1.455,1.455,0,0,0-.439,1.536c.22.658,1.1.658,1.536.878.658.439.658,1.536.439,2.414a9.334,9.334,0,0,0-.439,2.414,4.3,4.3,0,0,0,2.853,3.512,3.671,3.671,0,0,0,2.634.219l5.926-1.317a5.177,5.177,0,0,1,5.268,1.756,7.7,7.7,0,0,1,1.317,3.073l1.536,10.316,21.291-17.34-1.1-3.731a18,18,0,0,1-.22-9.658l1.317-5.707L214.308,37.2H178.75Z" transform="translate(201.414 44.452)" fill="#fa9269"/>
    <path id="Path_209" data-name="Path 209" d="M171.4,46.3a3.525,3.525,0,0,1,2.414-1.1,4.05,4.05,0,0,1,2.634,1.1,4.779,4.779,0,0,0,1.756,1.1h.439l-1.536.219a1.208,1.208,0,0,1-1.1-.439l-.219-.219a5.007,5.007,0,0,0-2.634-1.317,4.833,4.833,0,0,0-1.756.219Z" transform="translate(204.813 54.011)"/>
    <path id="Path_210" data-name="Path 210" d="M173.242,48.127l.658,2.414c0,.439.439.658.878.658.22,0,.439-.439.659-.658l.219-1.756Zm-1.756-3.512,1.975-1.317a2.6,2.6,0,0,1,2.195-.219l3.731,1.756-3.731-.439a1.852,1.852,0,0,0-1.536.439l-1.536,1.317c-.658.439-1.536.219-1.536-.658C170.827,45.273,171.047,44.834,171.486,44.615Z" transform="translate(204.288 51.304)"/>
    <path id="Path_211" data-name="Path 211" d="M194.271,32A24.616,24.616,0,0,0,173.2,43.633a43.508,43.508,0,0,0,4.17,6.8,53.413,53.413,0,0,0,4.39,5.487c1.756,1.975,3.951,3.292,5.707,5.048l.658.658c1.1,1.536.878,4.609.22,6.365a5.6,5.6,0,0,1-1.756,2.634c-.22.219-2.414,1.975-2.853,1.756a4.411,4.411,0,0,0,2.853.878c.439,0,.878-.219,1.317-.219a3.671,3.671,0,0,0,2.634.219,7.113,7.113,0,0,0,4.829-6.146,24.187,24.187,0,0,1,.439-3.951A4.758,4.758,0,0,1,198,60.754a4.406,4.406,0,0,1,3.731-.219,4.336,4.336,0,0,1,2.634,3.951v.878a3.708,3.708,0,0,1-.658,2.195l-3.292,5.048s3.512,7.9,7.243,9.219c7.024-4.39,12.95-13.17,13.828-21.949C223.464,40.341,208.1,32,194.271,32Z" transform="translate(206.964 38.238)" fill="#33150b"/>
    <path id="Path_215" data-name="Path 215" d="M172.095,55.814l-.439-.219a2.321,2.321,0,0,1-1.536-1.317,1.32,1.32,0,0,1-.22-.878s3.073,2.195,5.048,1.756A28.63,28.63,0,0,1,172.095,55.814Z" transform="translate(203.02 63.81)" fill="#bc6e4f"/>
    <path id="Path_218" data-name="Path 218" d="M213.224,146.226l67.137-12.349,13.7,74.474L226.923,220.7Z" transform="translate(254.79 159.975)" fill="#997328"/>
    <path id="Path_219" data-name="Path 219" d="M198.553,193.663l18.672-62.231,56.131,16.844L254.684,210.5Z" transform="translate(237.259 157.053)" fill="#bc8b2c"/>
    <path id="Path_220" data-name="Path 220" d="M223.9,126.6l.219,17.121h-7.9L216,134.5Z" transform="translate(258.107 151.28)" fill="#ffcf70"/>
    <path id="Path_221" data-name="Path 221" d="M219.576,126.739l20.632-.307.116,7.9-20.632.307Z" transform="translate(262.38 151.079)" fill="#9f663f"/>
    <path id="Path_222" data-name="Path 222" d="M236.9,134.182l.22,9.219h-7.9L229,126.5Z" transform="translate(273.641 151.16)" fill="#ffcf70"/>
    <path id="Path_223" data-name="Path 223" d="M209.053,134.871l67.159-.994,1.1,74.4-67.159,1Z" transform="translate(249.806 159.975)" fill="#ffcf70"/>
    <path id="Path_224" data-name="Path 224" d="M219.635,134.314l20.632-.277.274,20.63-20.63.277Z" transform="translate(262.451 160.166)" fill="#06c167"/>
    <path id="Path_226" data-name="Path 226" d="M223.815,79.4l24.364,27.876a14.933,14.933,0,0,1,2.414,6.8l2.634,55.313,3.731,9.658a8.062,8.062,0,0,1,.22,3.951l-2.414,7.024a3.561,3.561,0,0,1-3.512,2.414h-8.56c-.878,0-1.317-.659-1.317-1.536v-3.292a1.406,1.406,0,0,0-1.756-1.317l-1.756.22a1.47,1.47,0,0,1-1.536-.878l-1.317-3.512a3.84,3.84,0,0,1,.439-3.731l3.073-4.829a14.3,14.3,0,0,0,1.975-11.194l-9.877-41.045-26.12-27L223.815,79.4Z" transform="translate(244.365 94.878)" fill="#fa9269"/>
    <path id="Path_227" data-name="Path 227" d="M218.63,120.51c.22.439,7.243-7.463,7.9-8.56,1.975-3.512,3.512-7.463,6.8-9.877,4.17-3.292,9.877-2.414,14.706-4.39-9.438-9.658-20.632-18.876-31.388-27.217-5.268-4.17-11.853-6.585-18-2.195a12.33,12.33,0,0,0-3.073,16.243c0-.219,23.047,36,23.047,36Z" transform="translate(231.552 78.79)" fill="#7356bf"/>
  </g>
  <path id="Path_228" data-name="Path 228" d="M366.335,202.524a7.121,7.121,0,0,0-7.243-7.024c-7.463,0-8.78,10.1-12.292,14.706C352.507,209.987,366.335,210.426,366.335,202.524Z" transform="translate(414.405 233.611)" fill="#fff"/>
  <circle id="Ellipse_19" data-name="Ellipse 19" cx="3.073" cy="3.073" r="3.073" transform="translate(793.252 465.547)" fill="#fff"/>
  <circle id="Ellipse_20" data-name="Ellipse 20" cx="1.536" cy="1.536" r="1.536" transform="translate(790.618 423.404)" fill="#fff"/>
  <circle id="Ellipse_21" data-name="Ellipse 21" cx="4.39" cy="4.39" r="4.39" transform="translate(804.665 437.232)" fill="#fff"/>
</svg>
